<?xml version="1.0" encoding="utf-8"?>
<svg width="821px" height="219px" viewbox="0 0 821 219" version="1.1" xmlns:xlink="http://www.w3.org/1999/xlink" xmlns="http://www.w3.org/2000/svg">
  <defs>
    <path d="M0 0L821 0L821 198L0 198L0 0L0 0L0 0Z" id="path_1" />
    <clipPath id="mask_1">
      <use xlink:href="#path_1" />
    </clipPath>
  </defs>
  <g id="discord">
    <g id="discord">
      <path d="M0 0L821 0L821 218L0 218L0 0L0 0L0 0Z" id="Background" fill="#000000" fill-opacity="0" fill-rule="evenodd" stroke="none" />
      <g id="Mask-group" transform="translate(0 21)">
        <path d="M0 0L821 0L821 198L0 198L0 0L0 0L0 0Z" id="path_1#1" fill="none" fill-rule="evenodd" stroke="none" />
        <g id="Mask-group">
          <path d="M0 0L821 0L821 198L0 198L0 0L0 0L0 0Z" id="path_1" fill="none" fill-rule="evenodd" stroke="none" />
          <g clip-path="url(#mask_1)">
            <g id="Group" transform="translate(-0.099975586 -0.20007324)">
              <g id="Group">
                <path d="M46.7 0C41 0 36.5 4.9 36.5 11C36.5 17.1 41.1 22 46.7 22C52.4 22 56.9 17.1 56.9 11C56.9 4.9 52.3 7.62939e-06 46.7 7.62939e-06L46.7 0L46.7 0L46.7 0ZM10.2 0C4.5 0 0 4.9 0 11C0 17.1 4.6 22 10.2 22C15.9 22 20.4 17.1 20.4 11C20.5 4.90001 15.9 7.62939e-06 10.2 7.62939e-06L10.2 0L10.2 0L10.2 0Z" transform="translate(59.19998 83.2)" id="Shape" fill="#FFFFFF" fill-rule="evenodd" stroke="none" />
                <path d="M154.5 0L20.5 0C9.2 0 0 9.2 0 20.5L0 154.5C0 165.8 9.2 175 20.5 175L133.9 175L128.6 156.7L141.4 168.5L153.5 179.6L175.1 198.3L175.1 20.5C175 9.2 165.8 0 154.5 0L154.5 0L154.5 0L154.5 0ZM115.9 129.5C115.9 129.5 112.3 125.2 109.3 121.5C122.4 117.8 127.4 109.7 127.4 109.7C123.3 112.4 119.4 114.3 115.9 115.6C110.9 117.7 106.1 119 101.4 119.9C91.8 121.7 83 121.2 75.5 119.8C69.8 118.7 64.9 117.2 60.8 115.5C58.5 114.6 56 113.5 53.5 112.1C53.2 111.9 52.9 111.8 52.6 111.6C52.4 111.5 52.3 111.4 52.2 111.4C50.4 110.4 49.4 109.7 49.4 109.7C49.4 109.7 54.2 117.6 66.9 121.4C63.9 125.2 60.2 129.6 60.2 129.6C38.1 128.9 29.7 114.5 29.7 114.5C29.7 82.6 44.1 56.7 44.1 56.7C58.5 46 72.1 46.3 72.1 46.3L73.1 47.5C55.1 52.6 46.9 60.5 46.9 60.5C46.9 60.5 49.1 59.3 52.8 57.7C63.5 53 72 51.8 75.5 51.4C76.1 51.3 76.6 51.2 77.2 51.2C83.3 50.4 90.2 50.2 97.4 51C106.9 52.1 117.1 54.9 127.5 60.5C127.5 60.5 119.6 53 102.6 47.9L104 46.3C104 46.3 117.7 46 132 56.7C132 56.7 146.4 82.6 146.4 114.5C146.4 114.4 138 128.8 115.9 129.5L115.9 129.5L115.9 129.5L115.9 129.5ZM266.9 42.8L233.7 42.8L233.7 80.1L255.8 100L255.8 63.8L267.6 63.8C275.1 63.8 278.8 67.4 278.8 73.2L278.8 100.9C278.8 106.7 275.3 110.6 267.6 110.6L233.6 110.6L233.6 131.7L266.8 131.7C284.6 131.8 301.3 122.9 301.3 102.5L301.3 72.7C301.4 51.9 284.7 42.8 266.9 42.8L266.9 42.8L266.9 42.8L266.9 42.8ZM440.9 102.5L440.9 71.9C440.9 60.9 460.7 58.4 466.7 69.4L485 62C477.8 46.2 464.7 41.6 453.8 41.6C436 41.6 418.4 51.9 418.4 71.9L418.4 102.5C418.4 122.7 436 132.8 453.4 132.8C464.6 132.8 478 127.3 485.4 112.9L465.8 103.9C461 116.2 440.9 113.2 440.9 102.5L440.9 102.5L440.9 102.5L440.9 102.5ZM380.4 76.1C373.5 74.6 368.9 72.1 368.6 67.8C369 57.5 384.9 57.1 394.2 67L408.9 55.7C399.7 44.5 389.3 41.5 378.6 41.5C362.3 41.5 346.5 50.7 346.5 68.1C346.5 85 359.5 94.1 373.8 96.3C381.1 97.3 389.2 100.2 389 105.2C388.4 114.7 368.8 114.2 359.9 103.4L345.7 116.7C354 127.4 365.3 132.8 375.9 132.8C392.2 132.8 410.3 123.4 411 106.2C412 84.5 396.2 79 380.4 76.1L380.4 76.1L380.4 76.1L380.4 76.1ZM313.4 131.6L335.8 131.6L335.8 42.8L313.4 42.8L313.4 131.6L313.4 131.6L313.4 131.6L313.4 131.6ZM657.9 42.8L691.1 42.8C708.9 42.8 725.6 51.9 725.6 72.7L725.6 102.5C725.6 122.9 708.9 131.8 691.1 131.7L657.8 131.7L657.8 110.6L691.8 110.6C699.5 110.6 703 106.7 703 100.9L703 73.2C703 67.4 699.3 63.8 691.8 63.8L680 63.8L680 100L657.9 80.1L657.9 42.8L657.9 42.8L657.9 42.8ZM785.904 107.67C783.499 110.076 783.499 113.986 785.904 116.391C788.31 118.803 792.214 118.803 794.625 116.391L819.296 91.7204C821.701 89.3151 821.701 85.4047 819.296 82.9993L794.625 58.3286C792.22 55.9232 788.31 55.9232 785.904 58.3286C783.499 60.734 783.499 64.6443 785.904 67.0497L806.214 87.3599L785.904 107.67L785.904 107.67L785.904 107.67ZM528.2 41.6C509.8 41.6 491.5 51.6 491.5 72.1L491.5 102.4C491.5 122.7 509.9 132.9 528.4 132.9C546.8 132.9 565.1 122.7 565.1 102.4L565.1 72.1C565.1 51.7 546.6 41.6 528.2 41.6L528.2 41.6L528.2 41.6L528.2 41.6ZM542.6 102.4C542.6 108.8 535.4 112.1 528.3 112.1C521.1 112.1 513.9 109 513.9 102.4L513.9 72.1C513.9 65.6 520.9 62.1 527.9 62.1C535.2 62.1 542.6 65.2 542.6 72.1L542.6 102.4L542.6 102.4L542.6 102.4L542.6 102.4ZM645.5 72.1C645 51.3 630.8 42.9 612.5 42.9L577 42.9L577 131.7L599.7 131.7L599.7 103.5L603.7 103.5L624.3 131.7L652.3 131.7L628.1 101.2C638.8 97.8 645.5 88.5 645.5 72.1L645.5 72.1L645.5 72.1L645.5 72.1ZM612.9 84.1L599.7 84.1L599.7 63.8L612.9 63.8C627 63.8 627 84.1 612.9 84.1L612.9 84.1L612.9 84.1L612.9 84.1Z" id="Shape#1" fill="#FFFFFF" fill-rule="evenodd" stroke="none" />
              </g>
            </g>
          </g>
        </g>
      </g>
    </g>
  </g>
</svg>