<?xml version="1.0" encoding="utf-8"?>
<svg width="271px" height="219px" viewbox="0 0 271 219" version="1.1" xmlns:xlink="http://www.w3.org/1999/xlink" xmlns="http://www.w3.org/2000/svg">
  <defs>
    <path d="M0 0L270 0L270 198L0 198L0 0L0 0L0 0Z" id="path_1" />
    <clipPath id="mask_1">
      <use xlink:href="#path_1" />
    </clipPath>
  </defs>
  <g id="discord">
    <g id="discord">
      <path d="M0 0L270 0L270 218L0 218L0 0L0 0L0 0Z" id="Background" fill="#000000" fill-opacity="0" fill-rule="evenodd" stroke="none" />
      <g id="Mask-group" transform="translate(0 21)">
        <path d="M0 0L270 0L270 198L0 198L0 0L0 0L0 0Z" id="path_1#1" fill="none" fill-rule="evenodd" stroke="none" />
        <g id="Mask-group">
          <path d="M0 0L270 0L270 198L0 198L0 0L0 0L0 0Z" id="path_1" fill="none" fill-rule="evenodd" stroke="none" />
          <g clip-path="url(#mask_1)">
            <g id="Group" transform="translate(-0.099975586 -0.20007324)">
              <g id="Group">
                <path d="M46.7 0C41 0 36.5 4.9 36.5 11C36.5 17.1 41.1 22 46.7 22C52.4 22 56.9 17.1 56.9 11C56.9 4.9 52.3 7.62939e-06 46.7 7.62939e-06L46.7 0L46.7 0L46.7 0ZM10.2 0C4.5 0 0 4.9 0 11C0 17.1 4.6 22 10.2 22C15.9 22 20.4 17.1 20.4 11C20.5 4.90001 15.9 7.62939e-06 10.2 7.62939e-06L10.2 0L10.2 0L10.2 0Z" transform="translate(59.19998 83.20001)" id="Shape" fill="#FFFFFF" fill-rule="evenodd" stroke="none" />
                <path d="M234.804 108.445C232.399 110.851 232.399 114.761 234.804 117.166C237.21 119.579 241.114 119.579 243.525 117.166L268.196 92.4959C270.601 90.0906 270.601 86.1802 268.196 83.7748L243.525 59.1041C241.12 56.6987 237.21 56.6987 234.804 59.1041C232.399 61.5095 232.399 65.4198 234.804 67.8252L255.114 88.1354L234.804 108.445L234.804 108.445L234.804 108.445ZM154.5 0L20.5 0C9.2 0 0 9.2 0 20.5L0 154.5C0 165.8 9.2 175 20.5 175L133.9 175L128.6 156.7L141.4 168.5L153.5 179.6L175.1 198.3L175.1 20.5C175 9.2 165.8 0 154.5 0L154.5 0L154.5 0L154.5 0ZM115.9 129.5C115.9 129.5 112.3 125.2 109.3 121.5C122.4 117.8 127.4 109.7 127.4 109.7C123.3 112.4 119.4 114.3 115.9 115.6C110.9 117.7 106.1 119 101.4 119.9C91.8 121.7 83 121.2 75.5 119.8C69.8 118.7 64.9 117.2 60.8 115.5C58.5 114.6 56 113.5 53.5 112.1C53.2 111.9 52.9 111.8 52.6 111.6C52.4 111.5 52.3 111.4 52.2 111.4C50.4 110.4 49.4 109.7 49.4 109.7C49.4 109.7 54.2 117.6 66.9 121.4C63.9 125.2 60.2 129.6 60.2 129.6C38.1 128.9 29.7 114.5 29.7 114.5C29.7 82.6 44.1 56.7 44.1 56.7C58.5 46 72.1 46.3 72.1 46.3L73.1 47.5C55.1 52.6 46.9 60.5 46.9 60.5C46.9 60.5 49.1 59.3 52.8 57.7C63.5 53 72 51.8 75.5 51.4C76.1 51.3 76.6 51.2 77.2 51.2C83.3 50.4 90.2 50.2 97.4 51C106.9 52.1 117.1 54.9 127.5 60.5C127.5 60.5 119.6 53 102.6 47.9L104 46.3C104 46.3 117.7 46 132 56.7C132 56.7 146.4 82.6 146.4 114.5C146.4 114.4 138 128.8 115.9 129.5L115.9 129.5L115.9 129.5L115.9 129.5Z" id="Shape#1" fill="#FFFFFF" fill-rule="evenodd" stroke="none" />
              </g>
            </g>
          </g>
        </g>
      </g>
    </g>
  </g>
</svg>