<?xml version="1.0" encoding="utf-8"?>
<svg width="912px" height="273px" viewBox="0 0 912 273" version="1.1" xmlns:xlink="http://www.w3.org/1999/xlink" xmlns="http://www.w3.org/2000/svg">
  <desc>Created with Lunacy</desc>
  <defs>
    <path d="M0 0L875 0L875 272.1L0 272.1L0 0Z" transform="translate(36.76282 0)" id="path_1" />
    <clipPath id="mask_1">
      <use xlink:href="#path_1" />
    </clipPath>
  </defs>
  <g id="Discord-Logo+Wordmark-White">
    <path d="M37 0L74 272L0 272L37 0Z" transform="translate(0 0.1887207)" id="Triangle" fill="#528184" stroke="none" />
    <path d="M0 0L875 0L875 272.1L0 272.1L0 0Z" transform="translate(36.76282 0)" id="Background" fill="#528184" stroke="none" />
    <g clip-path="url(#mask_1)">
      <path d="M0 11C0 4.9 4.5 0 10.2 0C15.9 7.62939e-06 20.5 4.90001 20.4 11C20.4 17.1 15.9 22 10.2 22C4.6 22 0 17.1 0 11ZM36.5 11C36.5 4.9 41 0 46.7 0C52.3 7.62939e-06 56.9 4.9 56.9 11C56.9 17.1 52.4 22 46.7 22C41.1 22 36.5 17.1 36.5 11Z" transform="translate(132.8628 120.1)" id="Shape" fill="#FFFFFF" fill-rule="evenodd" stroke="none" />
      <path d="M20.5 0L154.5 0C165.8 0 175 9.2 175.1 20.5L175.1 198.3L153.5 179.6L141.4 168.5L128.6 156.7L133.9 175L20.5 175C9.2 175 0 165.8 0 154.5L0 20.5C0 9.2 9.2 0 20.5 0ZM368.6 67.8C368.9 72.1 373.5 74.6 380.4 76.1C396.2 79 412 84.5 411 106.2C410.3 123.4 392.2 132.8 375.9 132.8C365.3 132.8 354 127.4 345.7 116.7L359.9 103.4C368.8 114.2 388.4 114.7 389 105.2C389.2 100.2 381.1 97.3 373.8 96.3C359.5 94.1 346.5 85 346.5 68.1C346.5 50.7 362.3 41.5 378.6 41.5C389.3 41.5 399.7 44.5 408.9 55.7L394.2 67C384.9 57.1 369 57.5 368.6 67.8ZM440.9 102.5L440.9 71.9C440.9 60.9 460.7 58.4 466.7 69.4L485 62C477.8 46.2 464.7 41.6 453.8 41.6C436 41.6 418.4 51.9 418.4 71.9L418.4 102.5C418.4 122.7 436 132.8 453.4 132.8C464.6 132.8 478 127.3 485.4 112.9L465.8 103.9C461 116.2 440.9 113.2 440.9 102.5ZM528.2 41.6C509.8 41.6 491.5 51.6 491.5 72.1L491.5 102.4C491.5 122.7 509.9 132.9 528.4 132.9C546.8 132.9 565.1 122.7 565.1 102.4L565.1 72.1C565.1 51.7 546.6 41.6 528.2 41.6ZM233.7 42.8L266.9 42.8C284.7 42.8001 301.4 51.9001 301.3 72.7001L301.3 102.5C301.3 122.9 284.6 131.8 266.8 131.7L233.6 131.7L233.6 110.6L267.6 110.6C275.3 110.6 278.8 106.7 278.8 100.9L278.8 73.2001C278.8 67.4 275.1 63.8 267.6 63.8L255.8 63.8L255.8 100L233.7 80.1001L233.7 42.8ZM313.4 131.6L335.8 131.6L335.8 42.8L313.4 42.8L313.4 131.6ZM657.9 42.8L691.1 42.8C708.9 42.8001 725.6 51.9001 725.6 72.7001L725.6 102.5C725.6 122.9 708.9 131.8 691.1 131.7L657.8 131.7L657.8 110.6L691.8 110.6C699.5 110.6 703 106.7 703 100.9L703 73.2001C703 67.4 699.3 63.8 691.8 63.8L680 63.8L680 100L657.9 80.1001L657.9 42.8ZM645.5 72.1C645 51.3 630.8 42.9 612.5 42.9L577 42.9L577 131.7L599.7 131.7L599.7 103.5L603.7 103.5L624.3 131.7L652.3 131.7L628.1 101.2C638.8 97.8 645.5 88.5 645.5 72.1ZM115.9 129.5C115.9 129.5 112.3 125.2 109.3 121.5C122.4 117.8 127.4 109.7 127.4 109.7C123.3 112.4 119.4 114.3 115.9 115.6C110.9 117.7 106.1 119 101.4 119.9C91.8 121.7 83 121.2 75.5 119.8C69.8 118.7 64.9 117.2 60.8 115.5C58.5 114.6 56 113.5 53.5 112.1C53.2 111.9 52.9 111.8 52.6 111.6C52.4 111.5 52.3 111.4 52.2 111.4C50.4 110.4 49.4 109.7 49.4 109.7C49.4 109.7 54.2 117.6 66.9 121.4C63.9 125.2 60.2 129.6 60.2 129.6C38.1 128.9 29.7 114.5 29.7 114.5C29.7 82.5999 44.1 56.6999 44.1 56.6999C58.5 45.9999 72.1 46.2999 72.1 46.2999L73.1 47.4999C55.1 52.5999 46.9 60.4999 46.9 60.4999C46.9 60.4999 49.1 59.2999 52.8 57.6999C63.5 52.9999 72 51.7999 75.5 51.3999C76.1 51.2999 76.6 51.1999 77.2 51.1999C83.3 50.3999 90.2 50.1999 97.4 50.9999C106.9 52.0999 117.1 54.8999 127.5 60.4999C127.5 60.4999 119.6 52.9999 102.6 47.8999L104 46.2999C104 46.2999 117.7 45.9999 132 56.6999C132 56.6999 146.4 82.5996 146.4 114.499C146.398 114.498 146.374 114.533 146.33 114.6C145.478 115.877 136.838 128.837 115.9 129.5ZM528.3 112.1C535.4 112.1 542.6 108.8 542.6 102.4L542.6 72.1C542.6 65.2 535.2 62.1 527.9 62.1C520.9 62.1 513.9 65.6 513.9 72.1L513.9 102.4C513.9 109 521.1 112.1 528.3 112.1ZM599.7 84.1001L612.9 84.1001C627 84.1001 627 63.8 612.9 63.8L599.7 63.8L599.7 84.1001Z" transform="translate(73.66281 36.90002)" id="Shape" fill="#FFFFFF" fill-rule="evenodd" stroke="none" />
      <path d="M1.80405 59.8667L1.80405 59.8667C-0.601349 57.4613 -0.601349 53.551 1.80405 51.1456L22.1143 30.8354L1.80405 10.5252C-0.601349 8.11977 -0.601349 4.20945 1.80405 1.80405L1.80405 1.80405C4.20946 -0.601349 8.11977 -0.601349 10.5252 1.80405L35.1959 26.4748C37.6013 28.8802 37.6013 32.7906 35.1959 35.1959L10.5252 59.8667C8.1136 62.2783 4.20945 62.2783 1.80405 59.8667L1.80405 59.8667Z" transform="translate(836.7629 93.82764)" id="Shape-path" fill="#FFFFFF" stroke="none" />
    </g>
  </g>
</svg>