<?xml version="1.0" encoding="utf-8"?>
<svg width="707px" height="96px" viewbox="0 0 707 96" version="1.1" xmlns:xlink="http://www.w3.org/1999/xlink" xmlns="http://www.w3.org/2000/svg">
  <defs>
    <path d="M0 0L707 0L707 95.1292L0 95.1292L0 0L0 0L0 0L0 0Z" id="path_1" />
    <clipPath id="mask_1">
      <use xlink:href="#path_1" />
    </clipPath>
  </defs>
  <g id="discord">
    <path d="M0 0L707 0L707 95.1292L0 95.1292L0 0L0 0L0 0L0 0Z" id="bg" fill="none" fill-rule="evenodd" stroke="none" />
    <g clip-path="url(#mask_1)">
      <g id="Group" transform="translate(99.517044 0.31011963)">
        <g id="Group">
          <g id="Group#1">
            <path d="M34.4326 1.34421L0.103392 1.34421L0.103392 39.9129L22.9551 60.4898L22.9551 23.0585L35.1565 23.0585C42.9116 23.0585 46.7374 26.7809 46.7374 32.7782L46.7374 61.4204C46.7374 67.4177 43.1184 71.4503 35.1565 71.4503L0 71.4503L0 93.268L34.3292 93.268C52.7347 93.3714 70.0027 84.1687 70.0027 63.0748L70.0027 32.2612C70.1061 10.7537 52.8381 1.34421 34.4326 1.34421L34.4326 1.34421L34.4326 1.34421L34.4326 1.34421L34.4326 1.34421ZM214.351 63.0748L214.351 31.434C214.351 20.0599 234.825 17.4748 241.029 28.849L259.951 21.1973C252.506 4.85985 238.961 0.103394 227.69 0.103394C209.284 0.103394 191.086 10.7537 191.086 31.434L191.086 63.0748C191.086 83.9619 209.284 94.4054 227.276 94.4054C238.857 94.4054 252.713 88.7184 260.365 73.8286L240.098 64.5224C235.135 77.2408 214.351 74.1388 214.351 63.0748L214.351 63.0748L214.351 63.0748L214.351 63.0748L214.351 63.0748ZM151.793 35.7769C144.659 34.2258 139.902 31.6408 139.592 27.1946C140.005 16.5442 156.446 16.1306 166.063 26.3673L181.263 14.683C171.75 3.10204 160.996 0 149.932 0C133.078 0 116.74 9.51292 116.74 27.5048C116.74 44.9796 130.182 54.3891 144.969 56.6639C152.517 57.698 160.893 60.6966 160.686 65.8667C160.065 75.6898 139.799 75.1728 130.596 64.0054L115.913 77.7578C124.495 88.8217 136.18 94.4054 147.14 94.4054C163.995 94.4054 182.71 84.6857 183.434 66.9007C184.468 44.4626 168.131 38.7755 151.793 35.7769L151.793 35.7769L151.793 35.7769L151.793 35.7769L151.793 35.7769ZM82.5143 93.1646L105.676 93.1646L105.676 1.34421L82.5143 1.34421L82.5143 93.1646L82.5143 93.1646L82.5143 93.1646L82.5143 93.1646L82.5143 93.1646ZM438.732 1.34421L473.061 1.34421C491.467 1.34421 508.735 10.7537 508.735 32.2612L508.735 63.0748C508.735 84.1687 491.467 93.3714 473.061 93.268L438.629 93.268L438.629 71.4503L473.785 71.4503C481.747 71.4503 485.366 67.4177 485.366 61.4204L485.366 32.7782C485.366 26.7809 481.54 23.0585 473.785 23.0585L461.584 23.0585L461.584 60.4898L438.732 39.9129L438.732 1.34421L438.732 1.34421L438.732 1.34421L438.732 1.34421ZM571.09 68.4207C568.603 70.9085 568.603 74.9515 571.09 77.4383C573.578 79.9323 577.614 79.9323 580.107 77.4383L605.618 51.9286C608.104 49.4415 608.104 45.398 605.618 42.9108L580.107 17.401C577.621 14.9138 573.578 14.9138 571.09 17.401C568.603 19.8882 568.603 23.9315 571.09 26.4187L592.091 47.4198L571.09 68.4207L571.09 68.4207L571.09 68.4207L571.09 68.4207ZM304.62 0.103394C285.595 0.103394 266.672 10.4435 266.672 31.6408L266.672 62.9714C266.672 83.9619 285.698 94.5088 304.827 94.5088C323.853 94.5088 342.776 83.9619 342.776 62.9714L342.776 31.6408C342.776 10.5469 323.646 0.103394 304.62 0.103394L304.62 0.103394L304.62 0.103394L304.62 0.103394L304.62 0.103394ZM319.51 62.9714C319.51 69.5891 312.065 73.0014 304.724 73.0014C297.279 73.0014 289.834 69.7959 289.834 62.9714L289.834 31.6408C289.834 24.9197 297.072 21.3007 304.31 21.3007C311.859 21.3007 319.51 24.5061 319.51 31.6408L319.51 62.9714L319.51 62.9714L319.51 62.9714L319.51 62.9714L319.51 62.9714ZM425.91 31.6408C425.393 10.1333 410.71 1.4476 391.788 1.4476L355.08 1.4476L355.08 93.268L378.552 93.268L378.552 64.1088L382.688 64.1088L403.989 93.268L432.941 93.268L407.918 61.7306C418.982 58.2149 425.91 48.5986 425.91 31.6408L425.91 31.6408L425.91 31.6408L425.91 31.6408L425.91 31.6408ZM392.201 44.049L378.552 44.049L378.552 23.0585L392.201 23.0585C406.781 23.0585 406.781 44.049 392.201 44.049L392.201 44.049L392.201 44.049L392.201 44.049L392.201 44.049Z" id="Shape#1" fill="#000000" fill-rule="evenodd" stroke="none" />
          </g>
        </g>
      </g>
    </g>
  </g>
</svg>