<?xml version="1.0" encoding="utf-8"?>
<svg width="256px" height="256px" viewbox="0 0 256 256" version="1.1" xmlns:xlink="http://www.w3.org/1999/xlink" xmlns="http://www.w3.org/2000/svg">
  <path d="M0 0L256 0L256 256L0 256L0 0Z" id="Rectangle" fill="#1ABFC7" fill-rule="evenodd" stroke="none" />
  <g id="Discord-Logo-Black" transform="translate(33.175476 60.199974)">
    <path d="M140.587 137C140.587 137 134.715 129.987 129.823 123.789C151.188 117.755 159.343 104.381 159.343 104.381C152.656 108.785 146.295 111.884 140.587 114.004C132.432 117.429 124.604 119.712 116.938 121.017C101.281 123.953 86.9289 123.137 74.6969 120.854C65.4006 119.06 57.409 116.45 50.7221 113.841C46.971 112.373 42.8936 110.579 38.8163 108.296C38.327 107.969 37.8377 107.806 37.3484 107.48C37.0223 107.317 36.8592 107.154 36.6961 106.991C33.7604 105.36 32.1294 104.218 32.1294 104.218C32.1294 104.218 39.9579 117.266 60.6708 123.463C55.778 129.661 49.7436 137 49.7436 137C13.6999 135.858 0 112.21 0 112.21C0 59.6936 23.4855 17.1262 23.4855 17.1262C46.971 -0.48793 69.3148 0.00135629 69.3148 0.00135629L70.9457 1.95847C41.5889 10.4393 28.0521 23.3237 28.0521 23.3237C28.0521 23.3237 31.6402 21.3666 37.6746 18.594C55.1257 10.9286 68.9886 8.8084 74.6969 8.31912C75.6755 8.15602 76.4909 7.99293 77.4695 7.99293C87.4182 6.68818 98.6717 6.362 110.414 7.66675C125.908 9.46078 142.544 14.0274 159.506 23.3237C159.506 23.3237 146.621 11.0917 118.895 2.61085L121.179 0.00135629C121.179 0.00135629 143.522 -0.48793 167.008 17.1262C167.008 17.1262 190.493 59.6936 190.493 112.21C190.493 112.21 176.63 135.858 140.587 137L140.587 137Z" id="Shape" fill="#FFFFFF" fill-rule="evenodd" stroke="none" />
    <path d="M0 18.1034C0 8.15469 7.33922 0 16.6355 0C25.9319 0 33.4342 8.15469 33.2711 18.1034C33.2711 28.0521 25.9319 36.2068 16.6355 36.2068C7.50231 36.2068 0 28.0521 0 18.1034L0 18.1034ZM59.5292 18.1034C59.5292 8.15469 66.8684 0 76.1647 0C85.461 0 92.8003 8.15469 92.8003 18.1034C92.8003 28.0521 85.461 36.2068 76.1647 36.2068C67.0315 36.2068 59.5292 28.0521 59.5292 18.1034L59.5292 18.1034Z" transform="translate(48.11267 60.83525)" id="Vector" fill="#1ABFC7" fill-rule="evenodd" stroke="none" />
  </g>
</svg>