<?xml version="1.0" encoding="utf-8"?>
<svg width="1000px" height="1000px" viewbox="0 0 1000 1000" version="1.1" xmlns:xlink="http://www.w3.org/1999/xlink" xmlns="http://www.w3.org/2000/svg">
  <path d="M0 0L1000 0L1000 1000L0 1000L0 0L0 0L0 0L0 0L0 0Z" id="bg" fill="#5D9194" fill-rule="evenodd" stroke="none" />
  <g id="Phone" transform="translate(211.50894 212.99953)">
    <g id="Box" transform="translate(111.02362 0)">
      <path d="M48.1313 0C30.6834 0.00297487 13.739 6.15585 0 17.4774L320.503 302.795L320.503 219.821L73.7028 0L48.1313 0L48.1313 0L48.1313 0L48.1313 0L48.1313 0L48.1313 0Z" transform="translate(30.469564 0)" id="Shape" fill="#C71A89" fill-rule="evenodd" stroke="none" />
      <path d="M81.3368 0L0 0L163.269 146.868L163.269 82.7186C163.258 79.4149 163.063 76.1151 162.685 72.8358C140.533 52.9316 102.473 18.8012 81.3368 0L81.3368 0L81.3368 0L81.3368 0L81.3368 0L81.3368 0L81.3368 0Z" transform="translate(187.70451 0)" id="Shape#2" fill="#C71A89" fill-rule="evenodd" stroke="none" />
      <path d="M329.119 299.613L0 0L0 92.9029L264.209 325.312L272.395 325.312C293.848 325.285 314.352 315.995 329.119 299.613L329.119 299.613L329.119 299.613L329.119 299.613L329.119 299.613L329.119 299.613L329.119 299.613Z" transform="translate(0.022122914 249.68848)" id="Shape#3" fill="#C71A89" fill-rule="evenodd" stroke="none" />
      <path d="M0 11.5432L0 83.4269L350.951 416.368L350.951 326.228L0.79429 0C0.27266 3.82338 0.00723839 7.68063 0 11.5432L0 11.5432L0 11.5432L0 11.5432L0 11.5432L0 11.5432L0 11.5432Z" transform="translate(0.022082543 71.1754)" id="Shape#5" fill="#C71A89" fill-rule="evenodd" stroke="none" />
      <path d="M0.0220853 83.427C0.0220853 84.9482 0.0220853 86.4463 0.143424 87.9443C22.5598 109.266 59.4498 145.01 81.2153 166.146L176.507 166.146L0 0L0.0220853 83.427L0.0220853 83.427L0.0220853 83.427L0.0220853 83.427L0.0220853 83.427L0.0220853 83.427Z" transform="translate(0 408.81995)" id="Shape#7" fill="#C71A89" fill-rule="evenodd" stroke="none" />
      <path d="M78.4575 78.2012L81.072 78.2012C59.3064 57.0657 22.4164 21.298 0 0C2.40277 43.8013 36.7792 78.0655 78.4577 78.2012L78.4575 78.2012L78.4575 78.2012L78.4575 78.2012L78.4575 78.2012L78.4575 78.2012L78.4575 78.2012Z" transform="translate(0.14355673 496.76407)" id="Shape#8" fill="#FB788A" fill-rule="evenodd" stroke="none" />
      <path d="M0 66.2632L176.485 232.408L264.209 232.408L0 0L0 66.2632L0 66.2632L0 66.2632L0 66.2632L0 66.2632L0 66.2632L0 66.2632Z" transform="translate(0.022082543 342.55673)" id="Polygon" fill="#FB788A" fill-rule="evenodd" stroke="none" />
      <path d="M0 95.0632L329.119 394.675C343.119 379.346 350.942 358.91 350.951 337.644L350.951 332.941L0 0L0 95.0632L0 95.0632L0 95.0632L0 95.0632L0 95.0632L0 95.0632Z" transform="translate(0.022082543 154.60233)" id="Shape#9" fill="#FB788A" fill-rule="evenodd" stroke="none" />
      <path d="M2.74181e-05 53.698L350.157 379.928L350.157 285.317L29.6533 0C13.5295 13.1756 2.89748 32.4286 0 53.698L2.74181e-05 53.698L2.74181e-05 53.698L2.74181e-05 53.698L2.74181e-05 53.698L2.74181e-05 53.698L2.74181e-05 53.698Z" transform="translate(0.8163274 17.47735)" id="Shape#10" fill="#FB788A" fill-rule="evenodd" stroke="none" />
      <path d="M0 0L246.824 219.785L246.824 146.868L83.5651 0L0 0L0 0L0 0L0 0L0 0L0 0L0 0Z" transform="translate(104.17252 0)" id="Polygon#1" fill="#FB788A" fill-rule="evenodd" stroke="none" />
      <path d="M3.37569 0L0 0C21.1366 18.8012 59.1961 52.9314 81.3698 72.836C76.5034 31.347 43.0874 0.141087 3.37569 3.42727e-05L3.37569 0L3.37569 0L3.37569 0L3.37569 0L3.37569 0L3.37569 0Z" transform="translate(269.04117 0)" id="Shape#11" fill="#FB788A" fill-rule="evenodd" stroke="none" />
      <path d="M0 72.5341C0 32.4746 31.1704 0 69.6212 0C108.072 0 139.242 32.4746 139.242 72.5341C139.242 112.593 108.072 145.068 69.6212 145.068C31.1704 145.068 0 112.593 0 72.5341L0 72.5341L0 72.5341L0 72.5341L0 72.5341L0 72.5341Z" transform="translate(31.605892 67.238594)" id="Ellipse" fill="#3AFA97" fill-rule="evenodd" stroke="none" />
      <path d="M0 72.5341C0 32.4746 31.1704 0 69.6212 0C108.072 0 139.242 32.4746 139.242 72.5341C139.242 112.593 108.072 145.068 69.6212 145.068C31.1704 145.068 0 112.593 0 72.5341L0 72.5341L0 72.5341L0 72.5341L0 72.5341L0 72.5341Z" transform="translate(185.91739 66.48371)" id="Ellipse#1" fill="#3AFA97" fill-rule="evenodd" stroke="none" />
      <path d="M0 108.046C0 48.374 45.7901 0 102.275 0C158.76 0 204.549 48.374 204.549 108.046C204.549 167.719 158.76 216.092 102.275 216.092C45.7901 216.092 0 167.719 0 108.046L0 108.046L0 108.046L0 108.046L0 108.046L0 108.046Z" transform="translate(73.94565 247.80727)" id="Ellipse#2" fill="#3AFA97" fill-rule="evenodd" stroke="none" />
      <path d="M17.0991 0C10.7956 3.44258 5.02924 7.87967 0 13.1573C5.19962 8.09334 10.9373 3.67829 17.0992 0L17.0991 0L17.0991 0L17.0991 0L17.0991 0L17.0991 0L17.0991 0Z" transform="translate(51.804943 75.5418)" id="Shape#12" fill="#1BBFC8" fill-rule="evenodd" stroke="none" />
      <path d="M105.452 16.0974C112.192 27.478 134.267 68.3555 114.388 85.1476C91.2213 104.785 76.8249 97.4805 76.8249 97.4805C76.8249 97.4805 63.9068 81.6173 64.6237 79.3529C65.3407 77.0883 66.0578 79.6082 67.4921 75.5786C68.9261 71.5489 64.6237 70.2832 64.6237 70.2832C64.6237 70.2832 48.3519 46.3606 53.592 32.251C58.832 18.1413 65.076 9.08325 80.1564 7.57356C85.238 7.01087 90.3755 7.49601 95.2807 9.00194C75.8612 -2.12251 52.6017 -2.98279 32.4884 6.67935C32.4002 8.5026 31.5837 27.3968 33.2495 36.7452C35.0037 46.5696 48.8042 71.5025 48.8042 71.5025C48.8042 71.5025 27.48 75.2767 14.1868 84.0909C0.89353 92.9051 0 106.248 0 106.248C0 106.248 17.6507 144.571 61.7225 145.035C91.1077 145.429 117.481 126.118 127.353 96.9794C137.224 67.841 128.41 35.3196 105.419 16.0509L105.452 16.0974L105.452 16.0974L105.452 16.0974L105.452 16.0974L105.452 16.0974L105.452 16.0974Z" transform="translate(39.471516 67.2251)" id="Shape#13" fill="#1BBFC8" fill-rule="evenodd" stroke="none" />
      <path d="M36.7883 4.11272e-05C27.7601 -0.00973344 18.8151 1.81594 10.4446 5.37681L10.941 5.28393L10.5108 6.21295C8.86708 9.91745 3.34019 24.2012 8.07277 39.7859C13.5886 57.9135 26.253 72.7779 26.253 72.7779C26.253 72.7779 9.27517 86.3767 3.77038 103.506C0.734641 113.408 -0.485822 123.828 0.174023 134.21C11.1883 141.327 23.8645 145.082 36.7881 145.057C75.2337 145.057 106.398 112.541 106.398 72.5226C106.398 32.5046 75.2339 4.11272e-05 36.7883 4.11272e-05L36.7883 4.11272e-05L36.7883 4.11272e-05L36.7883 4.11272e-05L36.7883 4.11272e-05L36.7883 4.11272e-05L36.7883 4.11272e-05ZM61.422 88.3973C44.6759 95.9456 50.8979 93.9367 44.6759 91.1612C38.454 88.3857 39.1602 81.5921 40.1309 78.5728C41.1017 75.5534 43.4404 73.2773 42.3373 71.7677C41.2342 70.258 35.641 69.5031 33.2472 63.7084C30.8533 57.9135 24.6424 38.2761 32.0557 27.9522C39.4689 17.6283 51.6701 17.3729 51.6701 17.3729C67.6992 17.1174 77.9917 44.3149 77.749 48.8554C77.5064 53.3959 78.1682 80.8024 61.422 88.3624L61.422 88.3973L61.422 88.3973L61.422 88.3973L61.422 88.3973L61.422 88.3973L61.422 88.3973Z" transform="translate(218.75015 66.53012)" id="Shape#14" fill="#1BBFC8" fill-rule="evenodd" stroke="none" />
      <path d="M84.8183 4.97976C-0.346593 -20.4641 0.127823 59.8738 0.127823 59.8738C0.127823 59.8738 -3.94295 124.105 33.8628 137.947C71.6684 151.79 115.199 97.6505 120.704 80.2777C126.209 62.9048 125.691 17.1617 84.8183 4.97976L84.8183 4.97976L84.8183 4.97976L84.8183 4.97976L84.8183 4.97976L84.8183 4.97976L84.8183 4.97976ZM78.1439 98.6606C78.1439 98.6606 59.4783 126.868 35.3188 113.014C11.1594 99.16 22.8751 69.698 22.8751 69.698C22.8751 69.698 43.4493 45.7755 65.4686 63.1484C87.4879 80.5211 78.1439 98.6606 78.1439 98.6606L78.1439 98.6606L78.1439 98.6606L78.1439 98.6606L78.1439 98.6606L78.1439 98.6606L78.1439 98.6606Z" transform="translate(130.52066 260.72293)" id="Shape#15" fill="#1BBFC8" fill-rule="evenodd" stroke="none" />
    </g>
    <g id="Speaker" transform="translate(1.7797928 63.93686)">
      <path d="M0 252.283L101.089 254.626C101.089 254.626 73.6523 198.211 72.9308 173.056C72.2094 147.9 74.3737 33.5572 74.3737 33.5572C74.3737 33.5572 73.6523 -0.749063 52.7086 0.0125027C31.765 0.774082 32.4866 32.8192 32.4866 32.8192C32.4866 32.8192 33.9293 152.669 29.6006 175.54C25.2721 198.411 0 252.283 0 252.283L0 252.283L0 252.283L0 252.283L0 252.283L0 252.283L0 252.283Z" transform="translate(0 0.5301558)" id="Shape#16" fill="#3AFA97" fill-rule="evenodd" stroke="none" />
      <path d="M0 0.273276C5.79999 3.15724 10.2929 8.33363 12.5084 14.6847C16.3598 25.4993 18.7682 52.7873 18.2909 60.5085C17.8137 68.2298 11.0656 113.022 10.1 150.609C9.13438 188.197 37.5475 234.535 37.5475 234.535L50.0559 255.133L57.2815 255.133C57.2815 255.133 34.6508 204.143 28.8794 178.366C23.1078 152.59 30.7995 32.1425 29.3566 29.061C27.9136 25.9796 22.6194 3.28443 14.928 1.25745C10.0418 0.0316542 4.99274 -0.301243 0 0.273276L0 0.273276L0 0.273276L0 0.273276L0 0.273276L0 0.273276L0 0.273276Z" transform="translate(46.937305 0)" id="Shape#17" fill="#1BBFC8" fill-rule="evenodd" stroke="none" />
    </g>
    <path d="M0 0L575 0L575 575L0 575L0 0L0 0L0 0L0 0L0 0L0 0Z" id="bg" fill="none" fill-rule="evenodd" stroke="none" />
  </g>
  <g id="Text" transform="translate(148.8 395)">
    <path d="M0 0L702 0L702 211L0 211L0 0Z" id="bg" fill="none" fill-rule="evenodd" stroke="none" />
    <path d="M0 97.255C0 154.811 41.407 196.91 110.233 196.91C179.059 196.91 220.466 154.81 220.466 97.255C220.466 41.033 179.059 0 110.233 0C41.407 0 0 41.034 0 97.255ZM380.78 61.817L380.78 193.713L308.039 193.713L308.039 61.817L250.124 61.817L250.124 3.19598L438.696 3.19598L438.696 61.817L380.78 61.817ZM480.103 193.713L572.15 193.713C632.582 193.713 671.192 158.008 671.192 98.055C671.192 38.102 632.582 3.19598 572.15 3.19598L480.103 3.19598L480.103 193.713ZM552.844 139.089L552.844 57.82L565.994 57.82C584.74 57.82 596.77 70.61 596.77 98.055C596.77 125.767 585.579 139.089 565.994 139.089L552.844 139.089ZM74.421 97.255C74.421 73.275 87.851 59.951 110.233 59.951C132.615 59.951 146.045 73.274 146.045 97.255C146.045 122.568 132.615 136.957 110.233 136.957C87.851 136.957 74.421 122.569 74.421 97.255Z" transform="translate(6.5079985 7.1900635)" id="union" fill="none" fill-rule="evenodd" stroke="#FFFFFF" stroke-width="15" />
  </g>
  <path d="M0 460C0 205.949 205.949 0 460 0C714.051 0 920 205.949 920 460C920 714.051 714.051 920 460 920C205.949 920 0 714.051 0 460L0 460L0 460L0 460L0 460L0 460L0 460L0 460L0 460L0 460L0 460L0 460L0 460L0 460L0 460L0 460L0 460L0 460L0 460L0 460L0 460L0 460L0 460L0 460Z" transform="translate(40 40.499786)" id="elipse" fill="none" fill-rule="evenodd" stroke="#FFFFFF" stroke-width="15" />
</svg>