<?xml version="1.0" encoding="utf-8"?>
<svg width="256px" height="256px" viewbox="0 0 256 256" version="1.1" xmlns:xlink="http://www.w3.org/1999/xlink" xmlns="http://www.w3.org/2000/svg">
  <g id="default">
    <path d="M0 0L256 0L256 256L0 256L0 0L0 0ZM161.51 179.2C161.51 179.2 157.095 173.927 153.417 169.268C169.48 164.731 175.611 154.676 175.611 154.676C170.583 157.987 165.801 160.317 161.51 161.911C155.379 164.486 149.493 166.202 143.73 167.184C131.958 169.391 121.168 168.777 111.972 167.061C104.983 165.712 98.9747 163.75 93.9473 161.788C91.1272 160.685 88.0616 159.336 84.9962 157.62C84.6284 157.374 84.2605 157.251 83.8926 157.006C83.6475 156.884 83.5249 156.761 83.4023 156.638C81.1951 155.412 79.9688 154.554 79.9688 154.554C79.9688 154.554 85.8545 164.363 101.427 169.023C97.7484 173.682 93.2117 179.2 93.2117 179.2C66.1131 178.341 55.8132 160.562 55.8132 160.562C55.8132 121.079 73.4701 89.0759 73.4701 89.0759C91.1272 75.8331 107.926 76.201 107.926 76.201L109.152 77.6724C87.0807 84.0485 76.9034 93.7353 76.9034 93.7353C76.9034 93.7353 79.601 92.2639 84.1379 90.1794C97.258 84.4164 107.681 82.8223 111.972 82.4545C112.708 82.3319 113.321 82.2092 114.057 82.2092C121.537 81.2283 129.997 80.9831 138.825 81.964C150.474 83.3128 162.981 86.7461 175.733 93.7353C175.733 93.7353 166.046 84.539 145.201 78.1628L146.918 76.201C146.918 76.201 163.716 75.8331 181.374 89.0759C181.374 89.0759 199.03 121.079 199.03 160.562C199.03 160.562 188.608 178.341 161.51 179.2L161.51 179.2ZM104.492 121.937C97.5033 121.937 91.9855 128.068 91.9855 135.548C91.9855 143.027 97.6259 149.159 104.492 149.159C111.482 149.159 116.999 143.027 116.999 135.548C117.122 128.068 111.482 121.937 104.492 121.937L104.492 121.937ZM149.248 121.937C142.259 121.937 136.741 128.068 136.741 135.548C136.741 143.027 142.382 149.159 149.248 149.159C156.237 149.159 161.755 143.027 161.755 135.548C161.755 128.068 156.237 121.937 149.248 121.937L149.248 121.937Z" id="Rectangle-Xor" fill="white" fill-rule="evenodd" stroke="none" />
  </g>
</svg>
