<?xml version="1.0" encoding="utf-8"?>
<svg width="386px" height="386px" viewbox="0 0 386 386" version="1.1" xmlns:xlink="http://www.w3.org/1999/xlink" xmlns="http://www.w3.org/2000/svg">
  <path d="M193 0L193 -1.68726e-05C193.033 1.52588e-05 193.033 1.52588e-05 193.033 1.52588e-05C208.17 0.0346324 223.307 0.00417932 238.444 0.103867C244.338 0.142687 250.232 0.257547 256.125 0.415527C260.572 0.534754 265.018 0.70824 269.46 0.93544C302.362 2.618 339.942 7.74157 361.966 35.1493C365.382 39.4 368.316 44.0256 370.789 48.8828C376.88 60.845 380.216 74.0411 382.247 87.2489C385.315 107.203 385.541 127.417 385.896 147.556L386 193C386 193.119 386 193.119 386 193.119C385.965 208.227 385.996 223.336 385.896 238.444C385.857 244.338 385.742 250.232 385.584 256.125C385.465 260.572 385.292 265.018 385.065 269.46C383.382 302.362 378.258 339.942 350.851 361.966C346.6 365.382 341.974 368.316 337.117 370.789C325.155 376.88 311.959 380.216 298.751 382.247C278.797 385.315 258.583 385.541 238.444 385.896L193 386C192.837 386 192.837 386 192.837 386C177.743 385.965 162.649 385.996 147.556 385.896C141.662 385.857 135.768 385.742 129.875 385.584C125.428 385.465 120.982 385.292 116.54 385.065C83.6379 383.382 46.0579 378.258 24.0341 350.851C20.6184 346.6 17.6842 341.974 15.2109 337.117C9.11976 325.155 5.78366 311.959 3.75302 298.751C0.685198 278.797 0.458849 258.582 0.103867 238.444L-8.4363e-06 193C1.52588e-05 192.84 1.52588e-05 192.84 1.52588e-05 192.84C0.0346324 177.745 0.00425392 162.65 0.103867 147.556C0.142766 141.662 0.257558 135.768 0.415543 129.875C0.53477 125.428 0.708257 120.982 0.935455 116.54C2.61803 83.638 7.7416 46.0579 35.1493 24.0341C39.4 20.6184 44.0256 17.6842 48.8828 15.2109C60.8451 9.11976 74.0411 5.78367 87.2489 3.75302C107.203 0.685188 127.417 0.458849 147.556 0.103867L193 0Z" id="bg" fill="#5D9194" fill-rule="evenodd" stroke="none" />
  <g id="phone" transform="translate(33.999985 32.999985)">
    <path d="M0 0L320 0L320 320L0 320L0 0L0 0L0 0L0 0L0 0L0 0Z" id="bg" fill="none" fill-rule="evenodd" stroke="none" />
    <g id="Box" transform="translate(61.787064 0)">
      <path d="M26.7861 0C17.076 0.00165558 7.64603 3.42586 0 9.72656L178.367 168.512L178.367 122.335L41.0172 0L26.7861 0L26.7861 0L26.7861 0L26.7861 0L26.7861 0L26.7861 0Z" transform="translate(16.956993 0)" id="Shape" fill="#C71A89" fill-rule="evenodd" stroke="none" />
      <path d="M45.2657 0L0 0L90.8629 81.7353L90.8629 46.0347C90.8569 44.1961 90.7483 42.3597 90.5375 40.5347C78.2096 29.4576 57.0287 10.4633 45.2657 0L45.2657 0L45.2657 0L45.2657 0L45.2657 0L45.2657 0L45.2657 0Z" transform="translate(104.461655 0)" id="Shape#2" fill="#C71A89" fill-rule="evenodd" stroke="none" />
      <path d="M183.162 166.741L0 0L0 51.7025L147.038 181.043L151.594 181.043C163.533 181.028 174.944 175.858 183.162 166.741L183.162 166.741L183.162 166.741L183.162 166.741L183.162 166.741L183.162 166.741L183.162 166.741Z" transform="translate(0.012313843 138.95706)" id="Shape#3" fill="#C71A89" fill-rule="evenodd" stroke="none" />
      <path d="M0 6.42404L0 46.4289L195.312 231.718L195.312 181.553L0.44204 0C0.151741 2.12779 0.00402832 4.27444 0 6.42404L0 6.42404L0 6.42404L0 6.42404L0 6.42404L0 6.42404L0 6.42404Z" transform="translate(0.012275696 39.61064)" id="Shape#5" fill="#C71A89" fill-rule="evenodd" stroke="none" />
      <path d="M0.012291 46.4289C0.012291 47.2755 0.012291 48.1092 0.0798187 48.9429C12.555 60.8086 33.0851 80.7012 45.1981 92.4636L98.2301 92.4636L0 0L0.012291 46.4289L0.012291 46.4289L0.012291 46.4289L0.012291 46.4289L0.012291 46.4289L0.012291 46.4289Z" transform="translate(0 227.51718)" id="Shape#7" fill="#C71A89" fill-rule="evenodd" stroke="none" />
      <path d="M43.6633 43.5207L45.1183 43.5207C33.0053 31.7583 12.4752 11.8528 0 0C1.3372 24.3764 20.4684 43.4452 43.6634 43.5207L43.6633 43.5207L43.6633 43.5207L43.6633 43.5207L43.6633 43.5207L43.6633 43.5207L43.6633 43.5207Z" transform="translate(0.07987976 276.46005)" id="Shape#8" fill="#FB788A" fill-rule="evenodd" stroke="none" />
      <path d="M0 36.8769L98.2179 129.34L147.038 129.34L0 0L0 36.8769L0 36.8769L0 36.8769L0 36.8769L0 36.8769L0 36.8769L0 36.8769Z" transform="translate(0.012275696 190.64027)" id="Polygon" fill="#FB788A" fill-rule="evenodd" stroke="none" />
      <path d="M0 52.9047L183.162 219.645C190.953 211.114 195.307 199.741 195.312 187.906L195.312 185.289L0 0L0 52.9047L0 52.9047L0 52.9047L0 52.9047L0 52.9047L0 52.9047Z" transform="translate(0.012275696 86.039566)" id="Shape#9" fill="#FB788A" fill-rule="evenodd" stroke="none" />
      <path d="M1.52588e-05 29.8841L194.87 211.438L194.87 158.785L16.5027 0C7.52944 7.33248 1.61251 18.0472 0 29.8841L1.52588e-05 29.8841L1.52588e-05 29.8841L1.52588e-05 29.8841L1.52588e-05 29.8841L1.52588e-05 29.8841L1.52588e-05 29.8841Z" transform="translate(0.45428467 9.726524)" id="Shape#10" fill="#FB788A" fill-rule="evenodd" stroke="none" />
      <path d="M0 0L137.363 122.315L137.363 81.7353L46.5058 0L0 0L0 0L0 0L0 0L0 0L0 0L0 0Z" transform="translate(57.974243 0)" id="Polygon#1" fill="#FB788A" fill-rule="evenodd" stroke="none" />
      <path d="M1.87865 0L0 0C11.763 10.4633 32.9439 29.4575 45.2841 40.5348C42.5758 17.4453 23.9791 0.0785179 1.87865 1.90735e-05L1.87865 0L1.87865 0L1.87865 0L1.87865 0L1.87865 0L1.87865 0Z" transform="translate(149.72726 0)" id="Shape#11" fill="#FB788A" fill-rule="evenodd" stroke="none" />
      <path d="M0 40.3668C0 18.0728 17.347 0 38.7457 0C60.1443 0 77.4913 18.0728 77.4913 40.3668C77.4913 62.6607 60.1443 80.7336 38.7457 80.7336C17.347 80.7336 0 62.6607 0 40.3668L0 40.3668L0 40.3668L0 40.3668L0 40.3668L0 40.3668Z" transform="translate(17.589363 37.41974)" id="Ellipse" fill="#3AFA97" fill-rule="evenodd" stroke="none" />
      <path d="M0 40.3668C0 18.0728 17.347 0 38.7457 0C60.1443 0 77.4913 18.0728 77.4913 40.3668C77.4913 62.6607 60.1443 80.7336 38.7457 80.7336C17.347 80.7336 0 62.6607 0 40.3668L0 40.3668L0 40.3668L0 40.3668L0 40.3668L0 40.3668Z" transform="translate(103.46707 36.99962)" id="Ellipse#1" fill="#3AFA97" fill-rule="evenodd" stroke="none" />
      <path d="M0 60.1301C0 26.9212 25.4832 0 56.9182 0C88.3533 0 113.836 26.9212 113.836 60.1301C113.836 93.339 88.3533 120.26 56.9182 120.26C25.4832 120.26 0 93.339 0 60.1301L0 60.1301L0 60.1301L0 60.1301L0 60.1301L0 60.1301Z" transform="translate(41.152344 137.91017)" id="Ellipse#2" fill="#3AFA97" fill-rule="evenodd" stroke="none" />
      <path d="M9.51604 0C6.008 1.91587 2.79888 4.38521 0 7.32235C2.8937 4.50412 6.08685 2.04705 9.51605 0L9.51604 0L9.51604 0L9.51604 0L9.51604 0L9.51604 0L9.51604 0Z" transform="translate(28.830597 42.040657)" id="Shape#12" fill="#1BBFC8" fill-rule="evenodd" stroke="none" />
      <path d="M58.6863 8.95856C62.4375 15.2921 74.7224 38.0413 63.6593 47.3865C50.7666 58.3151 42.7547 54.25 42.7547 54.25C42.7547 54.25 35.5655 45.4218 35.9645 44.1616C36.3635 42.9013 36.7626 44.3037 37.5608 42.0611C38.3589 39.8185 35.9645 39.1141 35.9645 39.1141C35.9645 39.1141 26.9089 25.8007 29.8251 17.9484C32.7413 10.096 36.2162 5.05502 44.6088 4.21485C47.4368 3.9017 50.2959 4.17169 53.0258 5.00977C42.2184 -1.18122 29.274 -1.65999 18.0805 3.7172C18.0314 4.73188 17.577 15.2469 18.5041 20.4495C19.4803 25.917 27.1606 39.7927 27.1606 39.7927C27.1606 39.7927 15.2932 41.8931 7.89524 46.7984C0.497269 51.7037 0 59.1294 0 59.1294C0 59.1294 9.82302 80.4567 34.3499 80.7153C50.7034 80.9345 65.381 70.1872 70.8746 53.9711C76.3682 37.755 71.463 19.6561 58.668 8.93269L58.6863 8.95856L58.6863 8.95856L58.6863 8.95856L58.6863 8.95856L58.6863 8.95856L58.6863 8.95856Z" transform="translate(21.966759 37.41224)" id="Shape#13" fill="#1BBFC8" fill-rule="evenodd" stroke="none" />
      <path d="M20.4735 2.28882e-05C15.4491 -0.00541687 10.471 1.01061 5.81265 2.99231L6.08893 2.94062L5.84949 3.45764C4.93472 5.51928 1.85889 13.4685 4.49268 22.1417C7.56236 32.2301 14.6104 40.5025 14.6104 40.5025C14.6104 40.5025 5.16183 48.0705 2.0983 57.6032C0.408844 63.1142 -0.27037 68.913 0.0968475 74.6909C6.22653 78.6516 13.2811 80.7413 20.4734 80.7272C41.8692 80.7272 59.213 62.6313 59.213 40.3604C59.213 18.0895 41.8693 2.28882e-05 20.4735 2.28882e-05L20.4735 2.28882e-05L20.4735 2.28882e-05L20.4735 2.28882e-05L20.4735 2.28882e-05L20.4735 2.28882e-05L20.4735 2.28882e-05ZM34.1827 49.195C24.8631 53.3958 28.3258 52.2778 24.8631 50.7332C21.4005 49.1886 21.7935 45.4078 22.3337 43.7275C22.874 42.0471 24.1755 40.7804 23.5616 39.9403C22.9477 39.1001 19.835 38.68 18.5028 35.4551C17.1705 32.2301 13.714 21.3015 17.8397 15.556C21.9653 9.81056 28.7555 9.66839 28.7555 9.66839C37.6761 9.52621 43.4041 24.6622 43.269 27.1891C43.134 29.716 43.5023 44.9683 34.1827 49.1756L34.1827 49.195L34.1827 49.195L34.1827 49.195L34.1827 49.195L34.1827 49.195L34.1827 49.195Z" transform="translate(121.73924 37.025467)" id="Shape#14" fill="#1BBFC8" fill-rule="evenodd" stroke="none" />
      <path d="M47.2032 2.77135C-0.192886 -11.3887 0.0711365 33.3211 0.0711365 33.3211C0.0711365 33.3211 -2.19434 69.0669 18.8454 76.7706C39.885 84.4743 64.111 54.3446 67.1746 44.6763C70.2381 35.0079 69.9496 9.55084 47.2032 2.77135L47.2032 2.77135L47.2032 2.77135L47.2032 2.77135L47.2032 2.77135L47.2032 2.77135L47.2032 2.77135ZM43.4888 54.9068C43.4888 54.9068 33.101 70.605 19.6557 62.8948C6.21046 55.1847 12.7305 38.7885 12.7305 38.7885C12.7305 38.7885 24.1805 25.4751 36.4347 35.1435C48.6889 44.8118 43.4888 54.9068 43.4888 54.9068L43.4888 54.9068L43.4888 54.9068L43.4888 54.9068L43.4888 54.9068L43.4888 54.9068L43.4888 54.9068Z" transform="translate(72.63759 145.09795)" id="Shape#15" fill="#1BBFC8" fill-rule="evenodd" stroke="none" />
    </g>
    <g id="Speaker" transform="translate(0.9904938 35.58223)">
      <path d="M0 140.401L56.2581 141.705C56.2581 141.705 40.9891 110.309 40.5876 96.3092C40.1861 82.3095 41.3906 18.6753 41.3906 18.6753C41.3906 18.6753 40.9891 -0.41687 29.3335 0.00695801C17.6779 0.430794 18.0795 18.2646 18.0795 18.2646C18.0795 18.2646 18.8824 84.9634 16.4734 97.6916C14.0645 110.42 0 140.401 0 140.401L0 140.401L0 140.401L0 140.401L0 140.401L0 140.401L0 140.401Z" transform="translate(0 0.29504395)" id="Shape#16" fill="#3AFA97" fill-rule="evenodd" stroke="none" />
      <path d="M0 0.152084C3.22782 1.75707 5.7282 4.63785 6.96122 8.17237C9.10457 14.1909 10.4449 29.3773 10.1793 33.6743C9.9137 37.9714 6.15823 62.8995 5.62085 83.8174C5.08348 104.736 20.896 130.524 20.896 130.524L27.8572 141.987L31.8784 141.987C31.8784 141.987 19.2839 113.61 16.072 99.2647C12.86 84.9195 17.1406 17.888 16.3376 16.1731C15.5345 14.4582 12.5882 1.82786 8.30775 0.699799C5.58847 0.0176163 2.77857 -0.167648 0 0.152084L0 0.152084L0 0.152084L0 0.152084L0 0.152084L0 0.152084L0 0.152084Z" transform="translate(26.12162 0)" id="Shape#17" fill="#1BBFC8" fill-rule="evenodd" stroke="none" />
    </g>
  </g>
</svg>