<?xml version="1.0" encoding="utf-8"?>
<svg width="1000px" height="1000px" viewbox="0 0 1000 1000" version="1.1" xmlns:xlink="http://www.w3.org/1999/xlink" xmlns="http://www.w3.org/2000/svg">
  <path d="M0 0L1000 0L1000 1000L0 1000L0 0L0 0L0 0L0 0L0 0Z" id="bg" fill="none" fill-rule="evenodd" stroke="none" />
  <g id="Octos" transform="translate(78 78.49985)">
    <path d="M0 0L844 0L844 844L0 844L0 0L0 0L0 0L0 0L0 0Z" id="Rectangle" fill="none" fill-rule="evenodd" stroke="none" />
    <g id="Pink-Octo" transform="translate(378.6894 135.27393)">
      <path d="M0 16.324C0 16.324 7.70801 118.345 9.06799 125.147C10.428 131.948 9.06799 163.235 9.06799 163.235C9.06799 163.235 7.255 177.745 12.696 178.652C18.136 179.558 34.461 138.75 36.274 136.936C38.087 135.122 58.945 62.574 58.945 62.574L67.107 55.319C67.107 55.319 101.568 121.519 103.381 123.334C105.194 125.147 110.636 175.024 110.636 175.024C110.636 175.024 112.449 183.186 119.704 183.186C126.959 183.186 134.214 124.24 134.214 122.426C134.214 120.612 89.778 0 89.778 0L0 16.324L0 16.324L0 16.324L0 16.324L0 16.324L0 16.324L0 16.324L0 16.324L0 16.324L0 16.324L0 16.324L0 16.324L0 16.324L0 16.324L0 16.324L0 16.324L0 16.324L0 16.324L0 16.324L0 16.324L0 16.324L0 16.324L0 16.324L0 16.324L0 16.324Z" transform="translate(77.99005 337.35208)" id="Shape#21" fill="#000000" fill-rule="evenodd" stroke="none" />
      <path d="M22.4506 6.62158C22.4506 6.62158 36.0536 -3.35339 42.4005 1.18256C48.7495 5.71558 65.9796 7.52954 63.2585 12.9706C60.5374 18.4116 67.7924 29.2936 67.7924 29.2936C67.7924 29.2936 63.2585 34.7346 62.3516 35.6426C61.4445 36.5486 71.4195 48.3376 65.9796 59.2206C60.5385 70.1026 36.9594 95.4946 26.0775 92.7746C15.1956 90.0536 -3.84946 82.7986 0.685516 66.4766C5.21951 50.1516 20.6356 36.5486 20.6356 36.5486L22.4506 6.62158L22.4506 6.62158L22.4506 6.62158L22.4506 6.62158L22.4506 6.62158L22.4506 6.62158L22.4506 6.62158L22.4506 6.62158L22.4506 6.62158L22.4506 6.62158L22.4506 6.62158L22.4506 6.62158L22.4506 6.62158L22.4506 6.62158L22.4506 6.62158L22.4506 6.62158L22.4506 6.62158L22.4506 6.62158L22.4506 6.62158L22.4506 6.62158L22.4506 6.62158L22.4506 6.62158L22.4506 6.62158L22.4506 6.62158L22.4506 6.62158Z" transform="translate(53.72641 500.3135)" id="Shape#22" fill="#000000" fill-rule="evenodd" stroke="none" />
      <path d="M11.8275 4.62628C11.8275 4.62628 37.2195 -4.44171 43.5674 2.81329C49.9155 10.0683 41.7534 18.2293 50.8225 23.6703C59.8904 29.1113 77.1215 41.8083 78.9344 39.9933C80.7474 38.1803 82.5624 66.2933 72.5864 69.9203C62.6104 73.5483 27.2424 77.1753 20.8954 70.8273C14.5474 64.4783 -0.869568 46.3423 0.0384521 42.7143C0.944458 39.0873 11.8275 4.62628 11.8275 4.62628" transform="translate(167.7315 495.96085)" id="Shape#23" fill="#000000" fill-rule="evenodd" stroke="none" />
      <path d="M0 42.623C0 43.53 0 65.294 10.882 68.922C21.765 72.549 55.319 54.412 55.319 54.412L53.506 0C53.506 0 32.648 45.343 20.859 48.064C9.069 50.785 0 42.623 0 42.623" transform="translate(0 97.03406)" id="Shape#24" fill="#C71B8B" fill-rule="evenodd" stroke="none" />
      <path d="M0 103.382C0 105.195 43.529 116.986 62.574 112.45C81.618 107.916 118.799 88.872 118.799 88.872L103.383 0L21.765 2.72101L0 103.382L0 103.382L0 103.382L0 103.382L0 103.382L0 103.382L0 103.382L0 103.382L0 103.382L0 103.382L0 103.382L0 103.382L0 103.382L0 103.382L0 103.382L0 103.382L0 103.382L0 103.382L0 103.382L0 103.382L0 103.382L0 103.382L0 103.382L0 103.382L0 103.382Z" transform="translate(71.64203 256.64197)" id="Shape#25" fill="#C11D8D" fill-rule="evenodd" stroke="none" />
      <path d="M1.72101 0.460999L39.806 0L104.374 14.59L82.89 112.845L0 83.105L1.72101 0.460999L1.72101 0.460999L1.72101 0.460999L1.72101 0.460999L1.72101 0.460999L1.72101 0.460999L1.72101 0.460999L1.72101 0.460999L1.72101 0.460999L1.72101 0.460999L1.72101 0.460999L1.72101 0.460999L1.72101 0.460999L1.72101 0.460999L1.72101 0.460999L1.72101 0.460999L1.72101 0.460999L1.72101 0.460999L1.72101 0.460999L1.72101 0.460999L1.72101 0.460999L1.72101 0.460999L1.72101 0.460999L1.72101 0.460999Z" transform="translate(61.530945 189.22705)" id="Polygon" fill="#C11D8D" fill-rule="evenodd" stroke="none" />
      <path d="M45.4192 119.275C45.4192 119.275 81.6932 147.388 103.458 149.201C125.223 151.015 167.845 141.04 167.845 141.04C167.845 141.04 229.058 50.8071 179.181 19.9741C129.304 -10.8589 90.7622 3.19702 90.7622 3.19702C90.7622 3.19702 44.5122 24.962 36.3512 34.9371C28.1892 44.9121 26.3752 59.4221 26.3752 59.4221C26.3752 59.4221 4.61026 47.6331 0.982208 49.4471C-2.64481 51.2601 4.61026 73.9321 9.14444 80.2801C13.6783 86.6281 35.4432 105.672 35.4432 105.672L45.4192 119.275L45.4192 119.275L45.4192 119.275L45.4192 119.275L45.4192 119.275L45.4192 119.275L45.4192 119.275L45.4192 119.275L45.4192 119.275L45.4192 119.275L45.4192 119.275L45.4192 119.275L45.4192 119.275L45.4192 119.275L45.4192 119.275L45.4192 119.275L45.4192 119.275L45.4192 119.275L45.4192 119.275L45.4192 119.275L45.4192 119.275L45.4192 119.275L45.4192 119.275L45.4192 119.275L45.4192 119.275Z" transform="translate(19.421661 30.811035)" id="Shape#26" fill="#FB788A" fill-rule="evenodd" stroke="none" />
      <path d="M13.604 0L0 30.71C0 30.71 7.25598 38.584 14.511 39.372C21.766 40.159 31.741 34.647 31.741 33.86C31.741 33.072 37.1819 3.14999 37.1819 3.14999L13.604 0L13.604 0L13.604 0L13.604 0L13.604 0L13.604 0L13.604 0L13.604 0L13.604 0L13.604 0L13.604 0L13.604 0L13.604 0L13.604 0L13.604 0L13.604 0L13.604 0L13.604 0L13.604 0L13.604 0L13.604 0L13.604 0L13.604 0L13.604 0L13.604 0Z" transform="translate(82.52301 159.60803)" id="Shape#27" fill="#FB788A" fill-rule="evenodd" stroke="none" />
      <path d="M0.0361938 18.137C0.0361938 18.137 -0.869812 66.201 6.38519 74.362C13.6402 82.524 44.4732 51.691 44.4732 51.691L25.4292 0L0.0361938 16.324L0.0361938 18.137L0.0361938 18.137L0.0361938 18.137L0.0361938 18.137L0.0361938 18.137L0.0361938 18.137L0.0361938 18.137L0.0361938 18.137L0.0361938 18.137L0.0361938 18.137L0.0361938 18.137L0.0361938 18.137L0.0361938 18.137L0.0361938 18.137L0.0361938 18.137L0.0361938 18.137L0.0361938 18.137L0.0361938 18.137L0.0361938 18.137L0.0361938 18.137L0.0361938 18.137L0.0361938 18.137L0.0361938 18.137L0.0361938 18.137L0.0361938 18.137Z" transform="translate(48.026794 224.90198)" id="Shape#28" fill="#FB788A" fill-rule="evenodd" stroke="none" />
      <path d="M0.906372 92.5C0.000366211 89.779 -3.62762 53.505 14.5104 36.274C32.6474 19.044 43.5304 19.044 43.5304 19.044C43.5304 19.044 45.3434 0 59.8534 0C74.3634 0 76.1764 11.789 76.1764 11.789C76.1764 11.789 116.078 1.814 126.96 3.627C137.843 5.44099 165.049 29.926 165.049 29.926C165.049 29.926 89.7794 26.299 66.2004 39.902C42.6224 53.505 0.906372 92.5 0.906372 92.5" transform="translate(41.715637 0)" id="Shape#29" fill="#1BBFC8" fill-rule="evenodd" stroke="none" />
      <path d="M98.4414 38.873C98.4414 38.873 144.691 7.133 170.99 32.525C197.289 57.917 195.475 173.088 195.475 173.088C195.475 173.088 195.475 193.946 212.705 189.412C229.935 184.877 239.003 173.088 239.003 173.088C239.003 173.088 218.147 175.809 218.147 170.368C218.147 164.926 240.818 60.638 229.029 44.314C217.24 27.991 188.22 2.59904 173.711 0.785049C159.202 -1.02895 131.088 -0.121948 122.021 8.04004C112.952 16.2011 99.3495 11.6671 99.3495 11.6671C99.3495 11.6671 65.7953 23.456 60.3545 24.3631C54.9134 25.2701 40.4034 49.7551 36.7765 58.8241C33.1484 67.8931 26.8004 98.7261 30.4275 120.49C34.0555 142.255 34.0555 173.088 19.5453 172.181C5.03537 171.274 6.8494 147.696 5.94138 148.603C5.03537 149.51 -9.47464 181.25 10.4763 189.412C30.4264 197.573 50.3774 172.181 50.3774 172.181C50.3774 172.181 42.2164 118.677 48.5644 101.446C54.9124 84.2161 76.6764 57.0101 79.3974 47.0351C82.1174 37.059 98.4414 38.873 98.4414 38.873" transform="translate(12.195587 13.726074)" id="Shape#30" fill="#C11D8D" fill-rule="evenodd" stroke="none" />
      <path d="M1.4397 9.58661C-0.417297 13.9246 -1.32428 24.8066 4.11768 21.1796C9.55768 17.5516 21.3467 8.48364 28.6017 13.9246C35.8567 19.3646 41.2977 28.4346 39.4847 31.1536C37.6707 33.8746 51.2737 31.1536 53.0867 26.6196C54.9017 22.0856 59.4366 10.2966 53.0867 7.57562C46.7397 4.85461 34.9507 -1.49237 24.9756 0.320618C15.0006 2.13361 1.4397 9.58661 1.4397 9.58661" transform="translate(58.91034 546.9695)" id="Shape#31" fill="#C11D8D" fill-rule="evenodd" stroke="none" />
      <path d="M2.4873 2.72101C1.58032 3.62799 -2.04669 16.325 1.58032 19.045C5.20831 21.765 15.1843 29.927 21.5313 28.113C27.8803 26.3 41.4823 25.392 44.2033 22.672C46.9243 19.952 49.6443 16.324 49.6443 16.324L45.1093 0C45.1093 0 37.8543 13.604 26.0653 12.696C14.2763 11.791 2.4873 2.72101 2.4873 2.72101" transform="translate(71.42169 512.829)" id="Shape#32" fill="#C11D8D" fill-rule="evenodd" stroke="none" />
      <path d="M5.53137 0C5.53137 0 4.62537 14.51 10.9724 15.416C17.3204 16.323 34.5504 15.416 35.4573 12.696C36.3633 9.97504 42.7123 13.603 39.9913 16.3231C37.2703 19.0441 18.2263 29.9261 10.9713 27.2061C3.71631 24.485 0.9953 19.9511 0.0883179 15.4161C-0.81665 10.882 5.53137 0 5.53137 0" transform="translate(174.48065 504.66812)" id="Shape#33" fill="#C11D8D" fill-rule="evenodd" stroke="none" />
      <path d="M0 14.5677C0.906982 9.12677 20.856 -0.848267 23.578 0.0577393C26.299 0.964722 39.901 4.59174 37.182 6.40674C34.461 8.21973 15.417 18.1957 8.16199 19.1017C0.907043 20.0097 0 14.5677 0 14.5677" transform="translate(207.21796 532.7223)" id="Shape#34" fill="#C11D8D" fill-rule="evenodd" stroke="none" />
      <path d="M70.7495 51.9974L54.4264 46.5564C54.4264 46.5564 48.0784 66.5074 29.0334 66.5074C9.98938 66.5074 -5.42657 49.2773 1.82837 34.7674C9.08343 20.2574 17.2444 2.12036 39.0095 11.1884C60.7744 20.2574 58.0535 36.5804 58.0535 36.5804L77.0984 41.1154L87.0734 31.1393C87.0734 31.1393 103.396 11.1884 121.534 8.46835C139.672 5.74734 223.102 -9.66965 237.612 9.37436C252.122 28.4184 260.284 46.5564 243.961 61.9724C227.637 77.3893 182.294 95.5264 182.294 95.5264C182.294 95.5264 109.745 111.851 98.8635 96.4334C87.9794 81.0174 70.7495 51.9974 70.7495 51.9974" transform="translate(28.098572 178.3457)" id="Shape#35" fill="#FFFFFF" fill-rule="evenodd" stroke="none" />
      <path d="M0 89.779L22.672 107.009L64.388 83.431C64.388 83.431 100.662 90.686 116.078 84.337C131.495 77.989 169.583 63.48 169.583 63.48C169.583 63.48 121.52 65.294 97.941 44.436C74.362 23.578 72.548 0 72.548 0C72.548 0 46.249 18.137 38.994 37.181C31.739 56.225 35.3669 56.225 35.3669 56.225L0 89.779L0 89.779L0 89.779L0 89.779L0 89.779L0 89.779L0 89.779L0 89.779L0 89.779L0 89.779L0 89.779L0 89.779L0 89.779L0 89.779L0 89.779L0 89.779L0 89.779L0 89.779L0 89.779L0 89.779L0 89.779L0 89.779L0 89.779L0 89.779L0 89.779Z" transform="translate(40.80902 210.39209)" id="Shape#36" fill="#000000" fill-rule="evenodd" stroke="none" />
      <path d="M0 44.437C0 44.437 9.97601 48.064 12.695 48.064C15.416 48.064 30.833 2.72101 30.833 2.72101L24.485 0L0 44.437L0 44.437L0 44.437L0 44.437L0 44.437L0 44.437L0 44.437L0 44.437L0 44.437L0 44.437L0 44.437L0 44.437L0 44.437L0 44.437L0 44.437L0 44.437L0 44.437L0 44.437L0 44.437L0 44.437L0 44.437L0 44.437L0 44.437L0 44.437L0 44.437Z" transform="translate(218.5539 142.37708)" id="Shape#37" fill="#000000" fill-rule="evenodd" stroke="none" />
      <path d="M0 35.821C0 16.038 16.85 0 37.635 0C58.419 0 75.27 16.038 75.27 35.821C75.27 55.604 58.419 71.642 37.635 71.642C16.85 71.641 0 55.604 0 35.821" transform="translate(228.52899 82.525024)" id="Shape#38" fill="#000000" fill-rule="evenodd" stroke="none" />
      <path d="M5.44098 6.34802L0 35.367C0 35.367 19.044 40.808 29.02 38.088C38.996 35.368 58.04 23.578 58.04 23.578L41.717 0C41.717 0 33.555 6.34799 27.207 7.255C20.857 8.16101 5.44098 6.34802 5.44098 6.34802" transform="translate(131.94904 267.07104)" id="Shape#39" fill="#FB788A" fill-rule="evenodd" stroke="none" />
      <path d="M0.906006 20.858L0 38.996C0 38.996 28.112 35.368 36.274 29.927C44.435 24.485 55.318 9.97601 55.318 9.97601L42.622 0C42.622 0 31.74 9.97601 26.299 13.603C20.858 17.231 0.906006 20.858 0.906006 20.858" transform="translate(212.65887 246.21301)" id="Shape#40" fill="#FB788A" fill-rule="evenodd" stroke="none" />
    </g>
    <g id="Green-Octo" transform="translate(0.60002136 99)">
      <path d="M0.375732 14.3431C1.28275 12.5291 13.0717 1.64709 20.3267 0.739075C27.5817 -0.165955 43.9047 -1.07294 46.6257 3.46106C49.3467 7.99506 52.9737 31.5731 55.6947 35.201C58.4147 38.829 73.8318 65.1281 72.0187 70.5681C70.2047 76.009 66.5777 99.5881 55.6947 103.215C44.8127 106.842 18.5127 115.004 13.9787 103.215C9.4447 91.426 10.3517 78.73 10.3517 78.73C10.3517 78.73 6.72369 78.73 5.81668 72.382C4.91068 66.033 8.53769 54.244 8.53769 54.244C8.53769 54.244 2.1897 46.083 1.28268 39.734C0.375671 33.386 -0.531311 27.038 0.375671 25.224L1.28268 23.411L0.375732 14.3431L0.375732 14.3431L0.375732 14.3431L0.375732 14.3431L0.375732 14.3431L0.375732 14.3431L0.375732 14.3431L0.375732 14.3431L0.375732 14.3431L0.375732 14.3431L0.375732 14.3431L0.375732 14.3431L0.375732 14.3431L0.375732 14.3431L0.375732 14.3431L0.375732 14.3431L0.375732 14.3431L0.375732 14.3431L0.375732 14.3431L0.375732 14.3431L0.375732 14.3431L0.375732 14.3431L0.375732 14.3431L0.375732 14.3431L0.375732 14.3431Z" transform="translate(338.71863 537.93494)" id="Shape" fill="#000000" fill-rule="evenodd" stroke="none" />
      <path d="M7.42691 5.99634C7.42691 5.99634 40.9809 -2.16565 46.4219 0.555359C51.8629 3.27637 63.6519 9.62433 62.7449 13.2513C61.8389 16.8793 62.7449 47.7123 64.5589 50.4333C66.3729 53.1544 79.9759 77.6384 79.9759 81.2664C79.9759 84.8934 78.1619 104.844 59.1179 108.472C40.0739 112.099 21.9369 103.938 17.4019 96.6833C12.8679 89.4283 7.42688 71.2903 7.42688 71.2903C7.42688 71.2903 4.70587 54.9673 6.51987 52.2463C8.33386 49.5253 11.0539 45.8983 11.0539 45.8983C11.0539 45.8983 1.07886 16.8783 0.171875 15.9713C-0.735077 15.0653 1.98593 9.62433 7.42691 5.99634" transform="translate(231.00648 538.11975)" id="Shape#1" fill="#000000" fill-rule="evenodd" stroke="none" />
      <path d="M185.835 0L180.394 21.765L121.448 82.524C121.448 82.524 123.262 126.053 84.2674 160.514C45.2724 194.975 25.3214 218.553 5.37038 201.323C-14.5806 184.093 26.2284 145.097 43.4584 128.774C60.6894 112.451 99.6834 79.804 108.752 77.083C117.82 74.362 117.82 68.9211 117.82 68.9211L185.835 0L185.835 0L185.835 0L185.835 0L185.835 0L185.835 0L185.835 0L185.835 0L185.835 0L185.835 0L185.835 0L185.835 0L185.835 0L185.835 0L185.835 0L185.835 0L185.835 0L185.835 0L185.835 0L185.835 0L185.835 0L185.835 0L185.835 0L185.835 0L185.835 0Z" transform="translate(0 223.995)" id="Shape#2" fill="#000000" fill-rule="evenodd" stroke="none" />
      <path d="M0 35.367C0 35.367 18.137 63.48 26.299 58.946C34.461 54.411 67.108 10.882 67.108 10.882L50.784 0L0 35.367L0 35.367L0 35.367L0 35.367L0 35.367L0 35.367L0 35.367L0 35.367L0 35.367L0 35.367L0 35.367L0 35.367L0 35.367L0 35.367L0 35.367L0 35.367L0 35.367L0 35.367L0 35.367L0 35.367L0 35.367L0 35.367L0 35.367L0 35.367L0 35.367Z" transform="translate(127.79637 175.93103)" id="Shape#3" fill="#000000" fill-rule="evenodd" stroke="none" />
      <path d="M5.44101 219.762L241.225 1.20934C241.225 1.20934 245.759 -1.51166 248.48 1.20934C251.201 3.92934 247.573 7.55633 247.573 7.55633L0 241.527L5.44101 219.762" transform="translate(180.39442 4.232666)" id="Shape#4" fill="#FFFFFF" fill-rule="evenodd" stroke="none" />
      <path d="M17.23 67.2816L44.436 176.105C44.436 176.105 48.97 196.056 48.063 200.59C47.157 205.124 46.25 236.864 46.25 236.864C46.25 236.864 54.412 257.721 59.853 259.535C65.294 261.349 90.686 240.491 90.686 229.609C90.686 218.726 74.363 199.682 71.642 192.427C68.921 185.172 49.877 108.089 48.97 93.5786C48.063 79.0685 48.97 58.2105 46.25 48.2356C43.529 38.2596 30.833 14.6816 18.137 6.51956C5.44098 -1.64145 0 0.17157 0 0.17157L17.23 67.2816" transform="translate(329.1194 250.11938)" id="Shape#5" fill="#FB788A" fill-rule="evenodd" stroke="none" />
      <path d="M107.929 27.2268L82.5369 89.8008C82.5369 89.8008 56.2381 84.3599 48.983 74.3838C41.7279 64.4078 33.5661 54.4328 33.5661 54.4328C33.5661 54.4328 53.517 39.0158 54.4241 33.5748C55.3309 28.1338 55.3309 -0.8862 52.61 0.020813C49.8901 0.927826 -0.894028 31.7608 0.0119781 38.1088C0.918976 44.4568 7.26698 66.2218 7.26698 66.2218L4.54698 69.8498L50.7969 116.1C53.517 118.821 75.282 125.168 79.816 124.261C84.35 123.355 111.556 99.7759 111.556 99.7759L107.929 27.2268" transform="translate(123.24939 233.0422)" id="Shape#6" fill="#FB788A" fill-rule="evenodd" stroke="none" />
      <path d="M0.0237427 27.206C-0.88327 27.206 24.5087 87.059 24.5087 87.059C24.5087 87.059 36.2977 109.731 43.5527 107.01C50.8077 104.289 50.8077 91.594 50.8077 91.594C50.8077 91.594 49.9007 51.692 48.9937 45.344C48.0867 38.995 34.4837 0 34.4837 0L0.0237427 27.206L0.0237427 27.206L0.0237427 27.206L0.0237427 27.206L0.0237427 27.206L0.0237427 27.206L0.0237427 27.206L0.0237427 27.206L0.0237427 27.206L0.0237427 27.206L0.0237427 27.206L0.0237427 27.206L0.0237427 27.206L0.0237427 27.206L0.0237427 27.206L0.0237427 27.206L0.0237427 27.206L0.0237427 27.206L0.0237427 27.206L0.0237427 27.206L0.0237427 27.206L0.0237427 27.206L0.0237427 27.206L0.0237427 27.206L0.0237427 27.206Z" transform="translate(321.84064 456.15005)" id="Shape#7" fill="#FB788A" fill-rule="evenodd" stroke="none" />
      <path d="M0 9.97601C0.907013 10.883 10.882 41.716 15.417 53.505C19.951 65.294 24.485 96.128 38.995 91.593C53.505 87.059 39.902 0 39.902 0L0 9.97601L0 9.97601L0 9.97601L0 9.97601L0 9.97601L0 9.97601L0 9.97601L0 9.97601L0 9.97601L0 9.97601L0 9.97601L0 9.97601L0 9.97601L0 9.97601L0 9.97601L0 9.97601L0 9.97601L0 9.97601L0 9.97601L0 9.97601L0 9.97601L0 9.97601L0 9.97601L0 9.97601L0 9.97601Z" transform="translate(224.8304 466.126)" id="Shape#8" fill="#FB788A" fill-rule="evenodd" stroke="none" />
      <path d="M6.34802 55.3181C6.34802 55.3181 18.137 68.014 22.671 67.1071C27.206 66.201 56.225 54.4111 56.225 54.4111L57.1321 48.9711L69.8281 39.902C69.8281 39.902 85.2451 40.809 89.7791 45.343C94.3131 49.877 103.382 66.201 103.382 66.201L142.377 51.691C142.377 51.691 154.166 25.391 153.259 23.578C152.352 21.765 137.843 0 137.843 0C137.843 0 84.338 13.603 70.735 12.696C57.132 11.789 3.31601 8.25598 3.31601 8.25598C3.31601 8.25598 0 26.299 0 32.647C3.05176e-05 38.9951 6.34802 55.3181 6.34802 55.3181" transform="translate(214.85439 423.50406)" id="Shape#9" fill="#000000" fill-rule="evenodd" stroke="none" />
      <path d="M4.534 24.485C4.534 24.485 9.97498 21.764 11.789 24.485C13.603 27.206 10.883 32.647 10.883 32.647L54.412 36.274L33.554 11.789C33.554 11.789 37.181 8.161 34.461 5.44099C31.74 2.72 27.206 5.44099 27.206 5.44099L30.834 0C30.834 0 38.089 0.906006 38.995 3.627C39.902 6.34799 38.089 9.97501 38.089 9.97501C38.089 9.97501 63.481 36.274 62.573 38.995C61.667 41.715 4.534 36.274 4.534 36.274C4.534 36.274 9.06903 30.833 7.255 29.926C5.44202 29.019 0 29.926 0 29.926L4.534 24.485L4.534 24.485L4.534 24.485L4.534 24.485L4.534 24.485L4.534 24.485L4.534 24.485L4.534 24.485L4.534 24.485L4.534 24.485L4.534 24.485L4.534 24.485L4.534 24.485L4.534 24.485L4.534 24.485L4.534 24.485L4.534 24.485L4.534 24.485L4.534 24.485L4.534 24.485L4.534 24.485L4.534 24.485L4.534 24.485L4.534 24.485L4.534 24.485Z" transform="translate(394.4124 0)" id="Shape#10" fill="#000000" fill-rule="evenodd" stroke="none" />
      <path d="M90.9065 0.156631C90.9065 0.156631 70.0485 -2.56337 59.1665 14.6666C48.2835 31.8966 46.4695 41.8726 46.4695 41.8726C46.4695 41.8726 20.1715 60.9166 14.7305 66.3576C9.28851 71.7986 2.03348 92.6566 0.220459 99.9116C-1.59351 107.167 8.38245 142.534 8.38245 142.534L170.71 111.7C170.71 111.7 174.337 54.5676 157.107 43.6846C139.876 32.8026 110.857 27.3616 110.857 27.3616C110.857 27.3616 109.95 0.155624 90.9065 1.06262" transform="translate(183.80092 15.260376)" id="Shape#11" fill="#3AFA97" fill-rule="evenodd" stroke="none" />
      <path d="M0 190.704C0 190.704 48.97 197.052 71.642 196.145C94.313 195.238 138.75 183.449 138.75 183.449C138.75 183.449 117.892 131.758 118.799 121.782C119.706 111.808 133.309 74.6258 133.309 74.6258C133.309 74.6258 124.24 49.2338 124.24 35.6308L124.24 6.61081C124.24 6.61081 98.848 -1.5502 79.804 0.262817C60.76 2.07681 19.044 15.6798 17.23 20.2138C15.417 24.7478 20.858 119.969 20.858 119.969C20.858 119.969 11.789 139.92 9.97601 144.454C8.16199 148.988 0 190.704 0 190.704" transform="translate(213.9474 240.05518)" id="Shape#12" fill="#3AFA97" fill-rule="evenodd" stroke="none" />
      <path d="M5.24588 33.9864C5.24588 33.9864 17.9419 24.9184 27.9169 22.1974C37.8929 19.4764 61.4709 22.1974 61.4709 22.1974L55.8269 8.7854C55.8269 8.7854 45.1469 -4.10162 27.0109 1.34039C8.87286 6.7804 1.61887 14.0354 1.61887 14.0354C1.61887 14.0354 -3.82211 30.3584 5.24588 33.9864" transform="translate(345.6375 578.14465)" id="Shape#13" fill="#3AFA97" fill-rule="evenodd" stroke="none" />
      <path d="M0 4.534C0 4.534 15.417 13.602 25.392 10.882C35.367 8.16205 42.622 0 42.622 0C42.622 0 32.647 20.857 21.765 19.044C10.882 17.23 0 4.534 0 4.534" transform="translate(340.00134 556.813)" id="Shape#14" fill="#3AFA97" fill-rule="evenodd" stroke="none" />
      <path d="M0 10.0142L1.966 24.5682C1.966 24.5682 17.432 11.3522 26.501 11.3522C35.569 11.3522 60.961 7.72522 60.961 7.72522C60.961 7.72522 41.917 -2.25079 26.501 0.470215C11.084 3.19122 0 10.0142 0 10.0142" transform="translate(238.2314 589.89575)" id="Shape#15" fill="#3AFA97" fill-rule="evenodd" stroke="none" />
      <path d="M0 3.85101C0 3.85101 20.098 18.137 31.888 11.788C43.677 5.44104 57.28 0 57.28 0C57.28 0 60 7.255 55.466 9.97601C50.932 12.697 30.074 23.58 22.819 20.859C15.564 18.138 0 3.85101 0 3.85101" transform="translate(231.9374 553.18494)" id="Shape#16" fill="#3AFA97" fill-rule="evenodd" stroke="none" />
      <path d="M0 25.0386C0 23.2266 9.06799 10.5286 19.951 11.4355C30.833 12.3416 46.25 12.3416 46.25 12.3416C46.25 12.3416 37.181 -3.07446 19.044 0.552551C0.907013 4.18158 0 25.0386 0 25.0386" transform="translate(257.47742 610.6704)" id="Shape#17" fill="#3AFA97" fill-rule="evenodd" stroke="none" />
      <path d="M155.996 0C155.996 0 166.878 4.534 170.506 9.069C174.133 13.603 183.202 31.74 183.202 31.74C183.202 31.74 194.991 38.995 203.153 38.088C211.315 37.181 241.241 42.623 242.149 46.25C243.055 49.877 242.149 65.294 220.383 77.99C198.619 90.686 194.084 88.873 194.084 88.873C194.084 88.873 186.829 111.544 183.202 116.078C179.575 120.612 148.741 132.402 133.325 136.029C117.908 139.657 87.075 145.098 81.634 142.377C76.192 139.657 58.055 110.637 58.055 110.637C58.055 110.637 38.104 115.171 30.85 115.171C23.595 115.171 0.922958 104.289 0.0159454 98.8479C-0.891068 93.4069 37.198 67.1079 37.198 67.1079C37.198 67.1079 40.825 53.5049 43.545 47.157C46.266 40.809 50.8 31.74 50.8 31.74L56.2419 38.088C56.2419 38.088 82.5399 24.485 99.7709 19.951C117.001 15.417 151.462 9.06897 151.462 9.06897L155.996 0L155.996 0L155.996 0L155.996 0L155.996 0L155.996 0L155.996 0L155.996 0L155.996 0L155.996 0L155.996 0L155.996 0L155.996 0L155.996 0L155.996 0L155.996 0L155.996 0L155.996 0L155.996 0L155.996 0L155.996 0L155.996 0L155.996 0L155.996 0L155.996 0Z" transform="translate(154.07852 90.686035)" id="Shape#18" fill="#FB788A" fill-rule="evenodd" stroke="none" />
      <path d="M0 6.34799C0 8.16199 0 35.368 1.814 38.088C3.62698 40.809 13.603 43.53 19.951 39.902C26.299 36.275 29.02 31.74 29.02 31.74L21.765 0L0 6.34799L0 6.34799L0 6.34799L0 6.34799L0 6.34799L0 6.34799L0 6.34799L0 6.34799L0 6.34799L0 6.34799L0 6.34799L0 6.34799L0 6.34799L0 6.34799L0 6.34799L0 6.34799L0 6.34799L0 6.34799L0 6.34799L0 6.34799L0 6.34799L0 6.34799L0 6.34799L0 6.34799L0 6.34799Z" transform="translate(264.27838 214.47205)" id="Shape#19" fill="#FB788A" fill-rule="evenodd" stroke="none" />
      <path d="M45.9667 57.1728C45.9667 57.1728 44.1527 84.5078 21.4817 78.0298C8.78473 74.4027 2.43771 67.1478 0.623718 58.0797C-1.19028 49.0107 1.52972 18.1777 1.52972 16.3637C1.52972 14.5497 46.8737 0.040741 46.8737 0.040741C52.3147 -1.77325 13.3557 57.5767 25.1087 62.6137C44.1527 70.7758 45.9667 57.1728 45.9667 57.1728" transform="translate(226.47365 73.86926)" id="Shape#20" fill="#3AFA97" fill-rule="evenodd" stroke="none" />
    </g>
  </g>
  <g id="Text" transform="translate(93 402.4998)">
    <g id="Fill">
      <path d="M0 0L46.6415 0L46.6415 190.596L0 190.596L0 0L0 0L0 0L0 0L0 0L0 0L0 0L0 0L0 0L0 0L0 0L0 0L0 0L0 0L0 0L0 0L0 0L0 0L0 0L0 0L0 0L0 0L0 0L0 0L0 0Z" transform="translate(0 3.1992493)" id="Shape#41" fill="#1BBFC8" fill-rule="evenodd" stroke="none" />
      <path d="M0 0L67.6973 0C127.666 0 166.045 34.9207 166.045 94.8981C166.045 154.876 127.665 190.596 67.6973 190.596L3.05176e-05 190.596L3.05176e-05 0L0 0L0 0L0 0L0 0L0 0L0 0L0 0L0 0L0 0L0 0L0 0L0 0L0 0L0 0L0 0L0 0L0 0L0 0L0 0L0 0L0 0L0 0L0 0L0 0ZM65.8319 150.611C98.0812 150.611 117.804 131.417 117.804 94.8981C117.804 58.645 97.281 39.9847 65.8319 39.9847L46.6426 39.9847L46.6426 150.611L65.8319 150.611L65.8319 150.611L65.8319 150.611L65.8319 150.611L65.8319 150.611L65.8319 150.611L65.8319 150.611L65.8319 150.611L65.8319 150.611L65.8319 150.611L65.8319 150.611L65.8319 150.611L65.8319 150.611L65.8319 150.611L65.8319 150.611L65.8319 150.611L65.8319 150.611L65.8319 150.611L65.8319 150.611L65.8319 150.611L65.8319 150.611L65.8319 150.611L65.8319 150.611L65.8319 150.611L65.8319 150.611Z" transform="translate(91.41174 3.1992493)" id="Shape#42" fill="#1BBFC8" fill-rule="evenodd" stroke="none" />
      <path d="M57.8361 39.9856L0 39.9856L0 0L162.313 0L162.313 39.9856L104.478 39.9856L104.478 190.596L57.8361 190.596L57.8361 39.9856L57.8361 39.9856L57.8361 39.9856L57.8361 39.9856L57.8361 39.9856L57.8361 39.9856L57.8361 39.9856L57.8361 39.9856L57.8361 39.9856L57.8361 39.9856L57.8361 39.9856L57.8361 39.9856L57.8361 39.9856L57.8361 39.9856L57.8361 39.9856L57.8361 39.9856L57.8361 39.9856L57.8361 39.9856L57.8361 39.9856L57.8361 39.9856L57.8361 39.9856L57.8361 39.9856L57.8361 39.9856L57.8361 39.9856L57.8361 39.9856Z" transform="translate(268.9077 3.1992493)" id="Shape#43" fill="#1BBFC8" fill-rule="evenodd" stroke="none" />
      <path d="M99.9456 0C148.72 0 173.24 25.3239 173.24 25.3239L150.851 60.2446C150.851 60.2446 131.396 42.6507 104.477 42.6507C64.4976 42.6507 48.2389 68.2417 48.2389 96.4977C48.2389 132.751 73.2926 154.343 102.877 154.343C125.265 154.343 141.523 140.482 141.523 140.482L141.523 125.821L114.604 125.821L114.604 86.1026L182.834 86.1026L182.834 193.796L143.923 193.796L143.923 188.465C143.923 184.466 144.19 180.467 144.19 180.467L143.656 180.467C143.656 180.467 125.266 196.995 93.5501 196.995C44.7751 196.995 0 160.476 0 98.0983C-0.0010376 42.6507 41.8434 0 99.9456 0L99.9456 0L99.9456 0L99.9456 0L99.9456 0L99.9456 0L99.9456 0L99.9456 0L99.9456 0L99.9456 0L99.9456 0L99.9456 0L99.9456 0L99.9456 0L99.9456 0L99.9456 0L99.9456 0L99.9456 0L99.9456 0L99.9456 0L99.9456 0L99.9456 0L99.9456 0L99.9456 0L99.9456 0Z" transform="translate(441.87598 0)" id="Shape#44" fill="#1BBFC8" fill-rule="evenodd" stroke="none" />
      <path d="M118.87 150.611L59.4344 150.611L47.9739 190.596L0 190.596L64.7646 0L113.806 0L178.57 190.596L130.597 190.596L118.87 150.611L118.87 150.611L118.87 150.611L118.87 150.611L118.87 150.611L118.87 150.611L118.87 150.611L118.87 150.611L118.87 150.611L118.87 150.611L118.87 150.611L118.87 150.611L118.87 150.611L118.87 150.611L118.87 150.611L118.87 150.611L118.87 150.611L118.87 150.611L118.87 150.611L118.87 150.611L118.87 150.611L118.87 150.611L118.87 150.611L118.87 150.611L118.87 150.611ZM89.0191 43.4509C89.0191 43.4509 84.7542 64.2431 81.2894 76.2388L70.3609 113.292L107.941 113.292L97.28 76.2388C93.8152 64.2431 89.5502 43.4509 89.5502 43.4509L89.0191 43.4509L89.0191 43.4509L89.0191 43.4509L89.0191 43.4509L89.0191 43.4509L89.0191 43.4509L89.0191 43.4509L89.0191 43.4509L89.0191 43.4509L89.0191 43.4509L89.0191 43.4509L89.0191 43.4509L89.0191 43.4509L89.0191 43.4509L89.0191 43.4509L89.0191 43.4509L89.0191 43.4509L89.0191 43.4509L89.0191 43.4509L89.0191 43.4509L89.0191 43.4509L89.0191 43.4509L89.0191 43.4509L89.0191 43.4509L89.0191 43.4509Z" transform="translate(636.4296 3.1993103)" id="Shape#45" fill="#1BBFC8" fill-rule="evenodd" stroke="none" />
    </g>
    <g id="Border" transform="translate(0 0.005065918)">
      <path d="M0 0L46.6408 0L46.6408 190.597L0 190.597L0 0L0 0L0 0L0 0L0 0L0 0L0 0L0 0L0 0L0 0L0 0L0 0L0 0L0 0L0 0L0 0L0 0L0 0L0 0L0 0L0 0L0 0L0 0L0 0Z" transform="translate(0 3.1992798)" id="Rectangle#1" fill="none" fill-rule="evenodd" stroke="#FFFFFF" stroke-width="8.504" />
      <path d="M46.6408 150.611L46.6408 39.9858L65.8302 39.9858C97.2795 39.9858 117.801 58.6457 117.801 94.8989C117.801 131.419 98.0787 150.611 65.8302 150.611L46.6408 150.611L46.6408 150.611L46.6408 150.611L46.6408 150.611L46.6408 150.611L46.6408 150.611L46.6408 150.611L46.6408 150.611L46.6408 150.611L46.6408 150.611L46.6408 150.611L46.6408 150.611L46.6408 150.611L46.6408 150.611L46.6408 150.611L46.6408 150.611L46.6408 150.611L46.6408 150.611L46.6408 150.611L46.6408 150.611L46.6408 150.611L46.6408 150.611L46.6408 150.611L46.6408 150.611L46.6408 150.611ZM0 190.597L67.6956 190.597C127.662 190.597 166.04 154.877 166.04 94.899C166.04 34.9207 127.662 0 67.6956 0L0 0L0 190.597L0 190.597L0 190.597L0 190.597L0 190.597L0 190.597L0 190.597L0 190.597L0 190.597L0 190.597L0 190.597L0 190.597L0 190.597L0 190.597L0 190.597L0 190.597L0 190.597L0 190.597L0 190.597L0 190.597L0 190.597L0 190.597L0 190.597L0 190.597L0 190.597Z" transform="translate(91.41223 3.1992798)" id="Shape#46" fill="none" fill-rule="evenodd" stroke="#FFFFFF" stroke-width="8.504" />
      <path d="M57.8343 190.597L104.474 190.597L104.474 39.9858L162.309 39.9858L162.309 0L0 0L0 39.9858L57.8343 39.9858L57.8343 190.597L57.8343 190.597L57.8343 190.597L57.8343 190.597L57.8343 190.597L57.8343 190.597L57.8343 190.597L57.8343 190.597L57.8343 190.597L57.8343 190.597L57.8343 190.597L57.8343 190.597L57.8343 190.597L57.8343 190.597L57.8343 190.597L57.8343 190.597L57.8343 190.597L57.8343 190.597L57.8343 190.597L57.8343 190.597L57.8343 190.597L57.8343 190.597L57.8343 190.597L57.8343 190.597Z" transform="translate(268.91003 3.1992798)" id="Polygon#1" fill="none" fill-rule="evenodd" stroke="#FFFFFF" stroke-width="8.504" />
      <path d="M0 98.0983C0 160.476 44.7754 196.995 93.5476 196.995C125.263 196.995 143.653 180.467 143.653 180.467L144.185 180.467C144.185 180.467 143.919 184.466 143.919 188.464L143.919 193.796L182.83 193.796L182.83 86.1022L114.601 86.1022L114.601 125.821L141.52 125.821L141.52 140.481C141.52 140.481 125.262 154.343 102.875 154.343C73.2909 154.343 48.2391 132.751 48.2391 96.4976C48.2391 68.2418 64.4959 42.651 104.474 42.651C131.392 42.651 150.848 60.2444 150.848 60.2444L173.235 25.3237C173.235 25.3237 148.715 0 99.943 0C41.8427 0.000946045 0 42.6519 0 98.0983L0 98.0983L0 98.0983L0 98.0983L0 98.0983L0 98.0983L0 98.0983L0 98.0983L0 98.0983L0 98.0983L0 98.0983L0 98.0983L0 98.0983L0 98.0983L0 98.0983L0 98.0983L0 98.0983L0 98.0983L0 98.0983L0 98.0983L0 98.0983L0 98.0983L0 98.0983L0 98.0983L0 98.0983Z" transform="translate(441.87695 0)" id="Shape#47" fill="none" fill-rule="evenodd" stroke="#FFFFFF" stroke-width="8.504" />
      <path d="M89.5487 43.4513C89.5487 43.4513 93.8127 64.2441 97.2775 76.2391L107.939 113.293L70.3593 113.293L81.2868 76.2391C84.7516 64.2441 89.0166 43.4513 89.0166 43.4513L89.5487 43.4513L89.5487 43.4513L89.5487 43.4513L89.5487 43.4513L89.5487 43.4513L89.5487 43.4513L89.5487 43.4513L89.5487 43.4513L89.5487 43.4513L89.5487 43.4513L89.5487 43.4513L89.5487 43.4513L89.5487 43.4513L89.5487 43.4513L89.5487 43.4513L89.5487 43.4513L89.5487 43.4513L89.5487 43.4513L89.5487 43.4513L89.5487 43.4513L89.5487 43.4513L89.5487 43.4513L89.5487 43.4513L89.5487 43.4513L89.5487 43.4513ZM130.593 190.597L178.566 190.597L113.802 0L64.764 0L0 190.597L47.9721 190.597L59.4337 150.611L118.866 150.611L130.593 190.597L130.593 190.597L130.593 190.597L130.593 190.597L130.593 190.597L130.593 190.597L130.593 190.597L130.593 190.597L130.593 190.597L130.593 190.597L130.593 190.597L130.593 190.597L130.593 190.597L130.593 190.597L130.593 190.597L130.593 190.597L130.593 190.597L130.593 190.597L130.593 190.597L130.593 190.597L130.593 190.597L130.593 190.597L130.593 190.597L130.593 190.597L130.593 190.597Z" transform="translate(636.43384 3.1992798)" id="Shape#48" fill="none" fill-rule="evenodd" stroke="#FFFFFF" stroke-width="8.504" />
    </g>
  </g>
  <path d="M0 460C0 205.949 205.949 0 460 0C714.051 0 920 205.949 920 460C920 714.051 714.051 920 460 920C205.949 920 0 714.051 0 460L0 460L0 460L0 460L0 460L0 460L0 460L0 460L0 460L0 460L0 460L0 460L0 460L0 460L0 460L0 460L0 460L0 460L0 460L0 460L0 460L0 460L0 460L0 460Z" transform="translate(40 40.499786)" id="elipse" fill="none" fill-rule="evenodd" stroke="#FFFFFF" stroke-width="15" />
</svg>