<svg xmlns="http://www.w3.org/2000/svg" xmlns:xlink="http://www.w3.org/1999/xlink" id="visual" viewBox="0 0 960 540" width="960" height="540" version="1.1"><rect x="0" y="0" width="960" height="540" fill="#2d494f"/><defs><linearGradient id="grad1_0" x1="43.8%" y1="0%" x2="100%" y2="100%"><stop offset="14.444444444444446%" stop-color="#5d9194" stop-opacity="1"/><stop offset="85.55555555555554%" stop-color="#5d9194" stop-opacity="1"/></linearGradient></defs><defs><linearGradient id="grad1_1" x1="43.8%" y1="0%" x2="100%" y2="100%"><stop offset="14.444444444444446%" stop-color="#5d9194" stop-opacity="1"/><stop offset="85.55555555555554%" stop-color="#446c71" stop-opacity="1"/></linearGradient></defs><defs><linearGradient id="grad1_2" x1="43.8%" y1="0%" x2="100%" y2="100%"><stop offset="14.444444444444446%" stop-color="#2d494f" stop-opacity="1"/><stop offset="85.55555555555554%" stop-color="#446c71" stop-opacity="1"/></linearGradient></defs><defs><linearGradient id="grad2_0" x1="0%" y1="0%" x2="56.3%" y2="100%"><stop offset="14.444444444444446%" stop-color="#5d9194" stop-opacity="1"/><stop offset="85.55555555555554%" stop-color="#5d9194" stop-opacity="1"/></linearGradient></defs><defs><linearGradient id="grad2_1" x1="0%" y1="0%" x2="56.3%" y2="100%"><stop offset="14.444444444444446%" stop-color="#446c71" stop-opacity="1"/><stop offset="85.55555555555554%" stop-color="#5d9194" stop-opacity="1"/></linearGradient></defs><defs><linearGradient id="grad2_2" x1="0%" y1="0%" x2="56.3%" y2="100%"><stop offset="14.444444444444446%" stop-color="#446c71" stop-opacity="1"/><stop offset="85.55555555555554%" stop-color="#2d494f" stop-opacity="1"/></linearGradient></defs><g transform="translate(960, 0)"><path d="M0 432C-48.7 433.2 -97.5 434.3 -133.5 410.9C-169.5 387.4 -192.7 339.3 -224.5 309C-256.3 278.8 -296.7 266.3 -330.9 240.4C-365.1 214.5 -393.1 175.2 -409 132.9C-424.8 90.6 -428.4 45.3 -432 0L0 0Z" fill="#385a60"/><path d="M0 288C-32.5 288.8 -65 289.5 -89 273.9C-113 258.3 -128.5 226.2 -149.7 206C-170.9 185.8 -197.8 177.5 -220.6 160.3C-243.4 143 -262.1 116.8 -272.6 88.6C-283.2 60.4 -285.6 30.2 -288 0L0 0Z" fill="#507e83"/><path d="M0 144C-16.2 144.4 -32.5 144.8 -44.5 137C-56.5 129.1 -64.2 113.1 -74.8 103C-85.4 92.9 -98.9 88.8 -110.3 80.1C-121.7 71.5 -131 58.4 -136.3 44.3C-141.6 30.2 -142.8 15.1 -144 0L0 0Z" fill="#5d9194"/></g><g transform="translate(0, 540)"><path d="M0 -432C46.8 -430.4 93.6 -428.8 133.5 -410.9C173.4 -392.9 206.4 -358.6 237.5 -326.8C268.5 -295 297.6 -265.7 319.6 -232.2C341.5 -198.6 356.2 -160.8 373.8 -121.4C391.3 -82 411.7 -41 432 0L0 0Z" fill="#385a60"/><path d="M0 -288C31.2 -286.9 62.4 -285.9 89 -273.9C115.6 -261.9 137.6 -239.1 158.3 -217.9C179 -196.7 198.4 -177.2 213 -154.8C227.7 -132.4 237.5 -107.2 249.2 -81C260.9 -54.7 274.4 -27.3 288 0L0 0Z" fill="#507e83"/><path d="M0 -144C15.6 -143.5 31.2 -142.9 44.5 -137C57.8 -131 68.8 -119.5 79.2 -108.9C89.5 -98.3 99.2 -88.6 106.5 -77.4C113.8 -66.2 118.7 -53.6 124.6 -40.5C130.4 -27.3 137.2 -13.7 144 0L0 0Z" fill="#5d9194"/></g></svg>